<?xml version="1.0" encoding="utf-8"?>
<!-- Generator: Adobe Illustrator 16.0.0, SVG Export Plug-In . SVG Version: 6.00 Build 0)  -->
<!DOCTYPE svg PUBLIC "-//W3C//DTD SVG 1.1//EN" "http://www.w3.org/Graphics/SVG/1.1/DTD/svg11.dtd">
<svg version="1.1" xmlns="http://www.w3.org/2000/svg" xmlns:xlink="http://www.w3.org/1999/xlink" x="0px" y="0px"
	 width="2067.324px" height="1981.992px" viewBox="0 0 2067.324 1981.992" enable-background="new 0 0 2067.324 1981.992"
	 xml:space="preserve">
<g id="Layer_5">
	<rect x="9.001" y="252.748" width="2058.323" height="1362.486"/>
	<polyline points="184.324,969.326 184.324,1002.992 235.824,1029.73 140.824,996.8 115.157,999.326 115.157,1029.493 
		181.157,1074.826 305.973,1183.104 290.324,1196.633 314.991,1253.659 344.99,1285.158 503.21,1264.975 474.991,1031.874 
		365.99,1018.493 309.99,985.146 184.324,969.326 	"/>
</g>
<g id="Layer_4">
	<polygon fill="#C1E5F2" points="1544.93,459.259 1630.086,514.627 1638.796,500.871 	"/>
	<polygon fill="#CCDEE6" points="1544.93,459.259 1393.964,522.16 1442.35,514.627 	"/>
	<polygon fill="#96CEE4" points="1438.456,515.234 1521.704,671.19 1630.086,514.627 	"/>
	<polygon fill="#C0E7F6" points="1591.863,514.749 1612.592,539.9 1630.086,514.627 	"/>
	<polygon fill="#7EB6D3" points="1610.975,539.9 1638.796,548.997 1630.086,514.627 	"/>
	<polygon fill="#1B659A" points="1393.964,682.898 1521.704,768.93 1521.704,671.19 	"/>
	<polygon fill="#1274AF" points="1521.704,671.19 1393.964,682.898 1521.704,705.059 	"/>
	<polygon fill="#C7E1EE" points="1521.704,768.93 1669.764,671.19 1521.704,671.19 	"/>
	<path fill="#C7E1EE" d="M1521.704,671.19"/>
	<polygon fill="#C7E1EE" points="1512.802,672.005 1521.704,682.898 1521.704,671.19 	"/>
	<polygon fill="#6EBCDE" points="1429.496,548.997 1447.189,566.676 1457.834,551.538 1438.456,515.234 	"/>
	<polygon fill="#3B88BF" points="1447.189,566.676 1512.802,672.005 1521.704,671.19 1457.834,551.538 	"/>
	<polygon fill="#B0D5E5" points="1521.704,682.898 1534.27,700.222 1553.637,671.19 1521.704,671.19 	"/>
	<g>
		<polygon fill="#69B1D9" points="1521.704,671.19 1669.764,671.19 1630.086,514.627 		"/>
		<polygon fill="#D1EDF6" points="1638.796,500.871 1669.764,671.19 1630.086,514.627 		"/>
		<polygon fill="#4FA2CC" points="1553.637,671.19 1630.086,546.148 1610.975,539.9 1521.704,671.19 		"/>
	</g>
	<polygon fill="#9DDBEF" points="1457.834,551.538 1603.063,551.538 1521.704,671.19 	"/>
	<polygon fill="#B8DBE9" points="1534.27,700.222 1521.704,768.93 1669.764,671.19 	"/>
	<polygon fill="#DCEBEF" points="1544.93,459.259 1438.456,515.234 1630.086,514.627 	"/>
	<polygon fill="#C1E5F2" points="1687.381,754.125 1747.794,970.117 1781.259,964.927 	"/>
	<polygon fill="#C0E7F6" points="1685.589,908.257 1683.896,977.234 1747.794,970.117 	"/>
	<polygon fill="#7EB6D3" points="1681.27,974.608 1713.643,1032.542 1747.794,970.117 	"/>
	<polygon fill="#6EBCDE" points="1373.963,692.864 1377.839,746.419 1416.385,742.425 1435.94,659.97 	"/>
	<polygon fill="#DCEBEF" points="1687.381,754.125 1435.94,659.97 1747.794,970.117 	"/>
	<polygon fill="#C1E5F2" points="1556.069,818.973 1568.28,937.411 1587.24,935.228 	"/>
	<polygon fill="#C0E7F6" points="1540.02,902.641 1532.347,940.068 1568.28,937.411 	"/>
	<polygon fill="#7EB6D3" points="1531.158,938.593 1543.348,970.665 1568.28,937.411 	"/>
	<polygon fill="#DCEBEF" points="1556.069,818.973 1426.613,763.085 1568.28,937.411 	"/>
	<polygon fill="#E6E7E8" points="1759.338,272.011 1538.251,391.345 1942.881,391.345 	"/>
	<polygon fill="#414042" points="1759.338,272.011 1942.881,391.345 1961.653,361.696 	"/>
	<polygon fill="#A7A9AC" points="1759.338,272.011 1433.965,407.582 1538.251,391.345 	"/>
	<polygon fill="#58595B" points="1529.857,392.652 1709.281,728.784 1942.881,391.345 	"/>
	<polygon fill="#494A4B" points="1860.496,391.605 1905.174,445.814 1942.881,391.345 	"/>
	<polygon fill="#808285" points="1709.281,728.784 2028.397,728.784 1942.881,391.346 	"/>
	<polygon fill="#8A8C8F" points="1901.688,445.814 1961.653,465.419 1942.881,391.345 	"/>
	<polygon fill="#C2C4C6" points="1961.653,361.696 2028.397,728.784 1942.881,391.345 	"/>
	<polygon fill="#F1F2F2" points="1529.857,392.652 1433.965,754.021 1709.281,728.784 	"/>
	<polygon fill="#58595B" points="1433.965,407.582 1433.965,754.021 1529.857,392.652 	"/>
	<polygon fill="#494A4B" points="1433.965,407.582 1510.547,465.419 1529.857,392.652 	"/>
	<polygon fill="#D1D3D4" points="1433.965,754.021 1709.281,939.443 1709.281,728.784 	"/>
	<polygon fill="#D3D5D6" points="1709.281,728.784 1433.965,754.021 1709.281,801.783 	"/>
	<polygon fill="#AAACAE" points="1709.281,939.443 2028.397,728.784 1709.281,728.784 	"/>
	<path fill="#AAACAE" d="M1709.281,728.784"/>
	<polygon fill="#AAACAE" points="1690.096,730.542 1709.281,754.021 1709.281,728.784 	"/>
	<polygon fill="#8A8C8F" points="1510.547,465.419 1548.68,503.525 1571.624,470.897 1529.857,392.652 	"/>
	<polygon fill="#E6E7E8" points="1548.68,503.525 1690.096,730.542 1709.281,728.784 1571.624,470.897 	"/>
	<polygon fill="#95979A" points="1548.68,503.525 1433.965,754.021 1510.547,465.419 	"/>
	<polygon fill="#C1E5F2" points="815.343,471.398 809.822,624.823 833.598,626.977 	"/>
	<polygon fill="#CCDEE6" points="815.343,471.398 623.268,311.703 669.003,371.692 	"/>
	<polygon fill="#DCEBEF" points="815.343,471.398 665.322,366.864 809.822,624.823 	"/>
	<polygon fill="#E6E7E8" points="1210.854,629.935 895.453,415.042 1198.96,960.615 	"/>
	<polygon fill="#A7A9AC" points="1210.854,629.935 796.877,285.75 895.453,415.042 	"/>
	<polygon fill="#58595B" points="887.518,404.633 600.813,880.925 1198.96,960.615 	"/>
	<polygon fill="#F1F2F2" points="887.518,404.633 362.671,527.302 600.813,880.925 	"/>
	<polygon fill="#58595B" points="796.877,285.75 362.671,527.302 887.518,404.633 	"/>
	<polygon fill="#494A4B" points="796.877,285.75 781.832,429.335 887.518,404.633 	"/>
	<polygon fill="#8A8C8F" points="781.832,429.335 762.675,507.318 820.778,515.505 887.518,404.633 	"/>
	<polygon fill="#95979A" points="762.675,507.318 362.671,527.302 781.832,429.335 	"/>
	<polygon fill="#6D6E71" points="1709.281,754.021 1736.37,791.356 1778.11,728.784 1709.281,728.784 	"/>
	<polygon fill="#939598" points="1778.11,728.784 1942.881,459.282 1901.688,445.814 1709.281,728.784 	"/>
	<polygon fill="#58595B" points="1874.542,313.6 1223.612,820.446 2044.503,1145.25 	"/>
	<polygon fill="#E6E7E8" points="161.162,707.301 41.072,927.978 380.088,707.086 	"/>
	<polygon fill="#414042" points="161.162,707.301 380.088,707.086 379.631,671.997 	"/>
	<polygon fill="#58595B" points="280.389,679.254 11.706,1459.264 876.798,1283.263 	"/>
	<polygon fill="#808285" points="1040.402,856.639 1169.544,1499.635 1861.289,1181.442 	"/>
	<polygon fill="#C2C4C6" points="2050.565,1170.256 1311.073,1463.442 1981.366,1145.25 	"/>
	<polygon fill="#939598" points="1251.467,959.133 1898.264,1174.621 1910.583,1085.796 1223.612,820.446 	"/>
	<polygon fill="#E6E7E8" points="414.625,783.448 172.215,717.439 465.281,996.433 	"/>
	<polygon fill="#414042" points="414.625,783.448 465.281,996.433 499.32,987.902 	"/>
	<polygon fill="#494A4B" points="405.431,939.816 400.414,1009.883 465.281,996.433 	"/>
	<polygon fill="#808285" points="63.422,1079.767 294.553,1299.798 465.281,996.433 	"/>
	<polygon fill="#8A8C8F" points="397.89,1007.48 427.802,1063.027 465.281,996.433 	"/>
	<polygon fill="#C2C4C6" points="499.32,987.902 294.553,1299.798 465.281,996.433 	"/>
	<polygon fill="#939598" points="113.275,1127.224 418.438,1045.639 397.89,1007.48 63.422,1079.767 	"/>
	<polygon fill="#E6E7E8" points="675.197,681.304 426.264,647.353 753.097,885.901 	"/>
	<polygon fill="#414042" points="675.197,681.304 753.097,885.901 785.738,873.021 	"/>
	<polygon fill="#58595B" points="418.713,643.459 365.474,1020.744 753.097,885.901 	"/>
	<polygon fill="#494A4B" points="686.397,837.542 690.527,907.667 753.097,885.901 	"/>
	<polygon fill="#808285" points="365.474,1020.744 623.234,1208.879 753.096,885.902 	"/>
	<polygon fill="#8A8C8F" points="687.712,905.613 724.589,956.801 753.097,885.901 	"/>
	<polygon fill="#C2C4C6" points="785.738,873.021 623.234,1208.879 753.097,885.901 	"/>
	<polygon fill="#939598" points="421.069,1061.321 713.044,940.777 687.712,905.613 365.474,1020.744 	"/>
	<polygon fill="#7D7F82" points="1736.37,791.356 1709.281,939.443 2028.397,728.784 	"/>
	<polygon fill="#AAACAE" points="1054.947,1455.113 1992.009,836.526 1054.947,836.526 	"/>
	<polygon fill="#7D7F82" points="1345.348,658.047 1001.401,1095.182 1938.463,476.595 	"/>
	<polygon fill="#808285" points="33.64,380.421 258.303,607.052 437.742,308.757 	"/>
	<polygon fill="#C2C4C6" points="673.715,457.714 334.07,885.901 629.722,475.592 	"/>
	<polygon fill="#939598" points="82.097,429.302 389.494,356.585 370.059,317.849 33.64,380.421 	"/>
	<polygon fill="#808285" points="1110.477,538.454 1379.983,538.454 1307.762,303.406 	"/>
	<polygon fill="#C2C4C6" points="1323.616,282.753 1379.983,538.454 1307.762,303.405 	"/>
	<polygon fill="#AAACAE" points="1110.477,749.112 1429.592,538.454 1110.477,538.454 	"/>
	<polygon fill="#7D7F82" points="1137.565,601.025 1110.477,749.112 1429.592,538.454 	"/>
</g>
<g id="Layer_10">
	<polygon fill="#070909" points="839.243,1396.492 890.324,1423.992 894.824,1393.992 	"/>
	<polygon fill="#101010" points="998.824,1378.742 998.824,1408.992 1106.324,1365.992 	"/>
	<polygon fill="#101010" points="1108.684,1372.242 1106.324,1365.992 998.824,1408.992 	"/>
	<polygon fill="#101010" points="1108.684,1413.993 998.824,1419.326 998.824,1408.992 1108.684,1372.242 1145.824,1368.992 	"/>
	<polygon fill="#16251E" points="1168.324,1375.659 1109.377,1413.153 1145.824,1368.992 1168.324,1368.992 	"/>
	<polygon fill="#101010" points="998.824,1419.326 1009.324,1504.492 1115.824,1500.492 1115.824,1487.992 1109.377,1413.153 	"/>
	<polygon fill="#0A0A0A" points="1200.901,1360.992 1216.949,1360.367 1223.199,1360.367 1228.99,1430.993 1199.324,1461.326 	"/>
	<polygon fill="#2D3441" points="1109.377,1413.153 1185.99,1387.492 1170.45,1373.999 	"/>
	<polygon fill="#3B4163" points="1200.645,1377.337 1199.324,1461.326 1182.056,1480.659 1185.99,1387.492 1185.99,1380.305 	"/>
	<polygon fill="#101010" points="1109.377,1413.153 1182.056,1481.492 1144.324,1465.992 1132.074,1466.742 	"/>
	<polygon fill="#101010" points="1115.824,1500.492 1119.824,1522.992 1128.074,1522.992 1132.074,1466.742 1109.377,1413.153 	"/>
	<polygon fill="#1E1E1E" points="1172.721,1391.937 1170.73,1470.842 1109.377,1413.153 	"/>
	<polygon fill="#343425" points="1185.99,1387.492 1172.721,1391.937 1170.73,1470.842 1182.056,1481.492 	"/>
	<polygon fill="#252525" points="1132.074,1466.742 1128.074,1522.992 1189.324,1511.742 1182.056,1481.492 1144.324,1465.992 	"/>
	<polygon fill="#41343A" points="1209.753,1450.662 1181.17,1480.659 1188.401,1511.912 1207.574,1578.492 1220.824,1573.492 	"/>
	<polygon fill="#0A0A0A" points="1228.99,1430.993 1209.753,1450.662 1222.324,1582.992 1240.824,1549.742 	"/>
	<polygon fill="#3A3A3A" points="1156.29,1517.81 1147.324,1635.511 1194.324,1617.992 1198.926,1548.463 1188.401,1511.912 	"/>
	<polygon fill="#343541" points="1119.824,1522.992 1120.725,1552.242 1128.074,1522.992 	"/>
	<polygon fill="#1E2D25" points="1156.29,1517.81 1146.324,1635.511 1128.074,1635.511 1120.725,1552.242 1128.074,1522.992 	"/>
	<polygon fill="#343541" points="1222.324,1582.992 1222.324,1595.242 1215.574,1610.242 1207.574,1578.492 1220.824,1573.492 	"/>
	<polygon fill="#151E39" points="1240.824,1549.742 1222.324,1582.992 1222.324,1595.242 1215.574,1610.242 1214.949,1633.742 
		1246.074,1635.511 	"/>
	<polygon fill="#CC775D" points="1209.753,1587.143 1205.574,1613.742 1215.574,1610.242 	"/>
	<polygon points="1198.926,1548.463 1194.324,1617.992 1205.574,1613.742 1209.753,1587.143 	"/>
	<polygon fill="#3B415D" points="1412.824,1416.492 1412.824,1395.742 1385.644,1346.685 1417.324,1385.242 1430.324,1405.492 	"/>
	<polygon fill="#252525" points="1348.324,1368.242 1348.324,1371.742 1401.074,1425.742 1412.824,1416.492 1412.824,1395.742 
		1385.644,1346.685 	"/>
	<polygon fill="#101010" points="896.129,1385.961 890.324,1423.992 878.991,1522.992 985.324,1525.326 977.199,1465.992 
		1004.275,1463.543 998.824,1419.326 998.824,1378.742 	"/>
	<polygon fill="#252516" points="808.574,1401.992 807.574,1498.326 888.058,1422.772 827.824,1388.992 	"/>
	<polygon fill="#101010" points="690.928,1397.992 705.074,1456.242 730.074,1454.492 722.209,1378.742 700.074,1391.058 	"/>
	<polygon fill="#2D1E24" points="807.574,1368.742 808.574,1373.792 807.574,1498.326 797.574,1488.492 784.074,1378.742 
		784.574,1373.792 	"/>
	<polygon fill="#1F1117" points="746.074,1390.742 724.208,1397.992 730.074,1454.492 	"/>
	<polygon fill="#34252D" points="765.666,1388.992 769.824,1428.242 787.545,1406.965 785.258,1388.367 	"/>
	<polygon fill="#34252D" points="888.058,1422.772 807.574,1498.326 802.574,1517.81 878.991,1517.81 890.324,1423.992 	"/>
	<polygon fill="#101010" points="977.199,1465.992 985.324,1525.326 1009.324,1504.492 1004.275,1463.543 	"/>
	<polygon fill="#101010" points="1115.824,1500.492 1009.324,1504.492 993.982,1517.81 996.064,1537.617 1050.103,1532.659 
		1118.902,1517.81 	"/>
	<polygon fill="#1E2534" points="878.991,1522.992 867.033,1635.511 987.99,1635.511 985.324,1525.326 	"/>
	<polygon fill="#1F1117" points="746.074,1393.576 730.074,1454.492 769.824,1428.242 765.666,1388.992 	"/>
	<polygon fill="#16251E" points="705.074,1456.242 740.324,1563.993 730.074,1454.492 	"/>
	<polygon fill="#2D1E24" points="787.545,1406.965 769.824,1428.242 797.574,1488.492 	"/>
	<polygon fill="#1F1117" points="730.074,1454.492 797.574,1488.492 769.824,1428.242 	"/>
	<polygon fill="#504256" points="802.574,1517.81 785.258,1620.659 827.824,1635.511 867.033,1635.511 878.991,1517.81 	"/>
	<polygon fill="#1F1117" points="752.905,1465.992 763.824,1592.627 740.324,1563.993 730.074,1454.492 	"/>
	<polygon fill="#1F1117" points="786.574,1482.951 783.699,1617.992 763.824,1592.627 752.905,1465.992 	"/>
	<polygon fill="#34252D" points="807.574,1498.326 785.258,1620.659 786.574,1482.951 797.574,1488.492 	"/>
	<polygon fill="#2D3456" points="712.449,1478.786 734.141,1632.659 740.324,1632.659 740.324,1560.659 	"/>
	<polygon fill="#343541" points="769.739,1595.992 740.324,1592.627 740.324,1563.993 	"/>
	<polygon fill="#0A0A0A" points="1333.346,1351.728 1348.324,1371.742 1389.46,1413.854 1371.657,1427.993 	"/>
	<polygon fill="#161D2D" points="1389.46,1413.854 1371.657,1427.993 1401.074,1425.742 	"/>
	<polygon fill="#1E2534" points="1401.074,1425.742 1457.57,1492.993 1417.324,1472.326 1371.657,1427.993 	"/>
	<polygon fill="#0C1812" points="1429.79,1404.66 1450.845,1425.742 1437.324,1427.993 1401.074,1425.742 1412.824,1416.492 	"/>
	<polygon fill="#161616" points="1479.804,1387.993 1429.79,1404.66 1450.845,1425.742 1493.657,1404.66 	"/>
	<polygon fill="#101010" points="1503.324,1420.924 1484.428,1409.205 1493.657,1404.66 	"/>
	<polygon fill="#05182D" points="1437.324,1427.993 1471.657,1463.993 1445.529,1478.66 1401.074,1425.742 	"/>
	<polygon fill="#3A2D34" points="1519.657,1449.326 1481.353,1410.719 1450.845,1425.742 1437.324,1427.993 1463.193,1455.118 	"/>
	<polygon fill="#343541" points="1508.991,1427.993 1496.258,1425.742 1519.657,1449.326 	"/>
	<polygon fill="#FEE950" points="1503.324,1420.924 1484.428,1409.205 1481.353,1410.719 1493.876,1423.341 1509.657,1429.326 	"/>
	<polygon fill="#343541" points="1505.324,1387.993 1493.657,1404.66 1509.657,1429.326 1517.991,1413.854 	"/>
	<polygon fill="#0A0A0A" points="1500.026,1375.452 1532.991,1425.821 1517.991,1416.326 	"/>
	<polygon fill="#495171" points="1509.324,1427.993 1519.657,1449.326 1532.991,1425.821 1517.991,1416.326 	"/>
	<polygon fill="#576A95" points="1468.646,1454.559 1489.324,1469.326 1519.657,1449.326 	"/>
	<polygon fill="#3B415D" points="1471.657,1463.993 1481.353,1484.326 1468.646,1505.66 1457.57,1492.993 1445.529,1478.66 	"/>
	<polygon fill="#0F1320" points="1489.324,1469.326 1481.353,1484.326 1471.657,1463.993 1463.193,1455.118 1468.646,1454.559 	"/>
	<polygon fill="#3A3B71" points="1532.991,1425.821 1521.158,1449.326 1532.991,1471.325 1546.657,1452.24 	"/>
	<polygon fill="#424A63" points="1419.056,1473.216 1456.397,1491.598 1494.152,1534.325 	"/>
	<polygon fill="#414956" points="1489.324,1469.326 1491.324,1473.216 1532.991,1469.442 1521.158,1449.326 	"/>
	<polygon fill="#161616" points="1472.627,1498.975 1503.324,1483.325 1491.324,1473.216 1489.324,1469.326 	"/>
	<polygon fill="#343541" points="1532.991,1469.442 1516.508,1478.66 1511.158,1471.42 	"/>
	<polygon fill="#343541" points="1503.324,1483.325 1491.324,1473.216 1511.158,1471.42 1516.508,1477.373 	"/>
	<polygon fill="#1E2534" points="1546.657,1452.24 1571.324,1492.993 1553.991,1510.992 1533.908,1470.045 	"/>
	<polygon fill="#516381" points="1500.026,1484.826 1526.324,1519.658 1553.991,1510.992 1532.991,1469.442 	"/>
	<polygon fill="#787D88" points="1468.646,1505.46 1493.876,1510.992 1484.428,1523.321 	"/>
	<polygon fill="#2D3450" points="1500.026,1484.826 1472.627,1498.975 1468.646,1505.46 1493.876,1510.992 	"/>
	<polygon fill="#161D2D" points="1526.324,1519.658 1494.152,1534.325 1484.428,1523.321 1493.876,1510.992 1500.026,1484.826 	"/>
	<polygon fill="#1E2440" points="1511.158,1547.637 1494.152,1534.325 1502.655,1530.449 1511.158,1539.043 	"/>
	<polygon fill="#0B110C" points="1548.399,1455.118 1590.991,1483.325 1571.324,1492.993 	"/>
	<polygon fill="#252534" points="1511.158,1539.043 1523.888,1520.769 1502.655,1530.449 	"/>
	<polygon fill="#0F1320" points="1530.234,1518.434 1552.616,1540.658 1521.158,1524.688 1523.888,1520.769 	"/>
	<polygon fill="#495E88" points="1553.991,1510.992 1601.658,1558.658 1573.991,1561.992 1550.989,1539.043 1530.234,1518.434 	"/>
	<polygon fill="#243A6A" points="1565.564,1498.975 1614.657,1547.637 1601.658,1558.658 1553.991,1510.992 	"/>
	<polygon fill="#2D3450" points="1521.158,1524.688 1507.958,1545.132 1519.657,1558.658 1533.908,1531.161 	"/>
	<polygon fill="#252534" points="1572.656,1560.66 1533.908,1564.992 1519.657,1558.658 1533.908,1531.161 1550.989,1539.043 	"/>
	<polygon fill="#2D3450" points="1574.8,1491.284 1571.324,1492.993 1565.564,1498.975 1614.657,1547.637 1622.657,1539.043 
		1610.657,1514.391 	"/>
	<polygon points="1590.991,1483.325 1617.657,1514.391 1609.534,1513.667 1574.8,1491.284 	"/>
	<polygon fill="#151E39" points="1533.908,1564.992 1592.824,1612.742 1614.657,1605.992 1547.845,1563.434 	"/>
	<polygon fill="#1E2534" points="1601.658,1558.658 1547.845,1563.434 1614.657,1605.992 1640.074,1600.742 	"/>
	<polygon fill="#0A0A0A" points="1609.534,1513.667 1624.074,1540.658 1708.324,1608.242 1720.824,1599.742 1651.824,1536.492 
		1617.657,1514.391 	"/>
	<polygon fill="#101010" points="1676.074,1598.492 1623.204,1539.043 1673.543,1580.342 	"/>
	<polygon fill="#1E2440" points="1630.403,1590.148 1653.102,1572.662 1623.204,1539.043 1601.658,1558.658 	"/>
	<polygon fill="#343A5D" points="1676.074,1598.492 1654.824,1615.992 1640.074,1600.742 1630.403,1590.148 1653.102,1572.662 	"/>
	<polygon fill="#343541" points="1593.959,1612.391 1612.324,1626.242 1640.074,1619.316 1623.204,1604.227 1614.657,1605.992 	"/>
	<polygon fill="#343541" points="1654.824,1615.992 1640.074,1619.316 1623.204,1604.227 1640.074,1600.742 	"/>
	<polygon fill="#25161D" points="1673.543,1580.342 1676.074,1598.492 1716.324,1632.742 1717.824,1615.992 1708.324,1608.242 	"/>
	<polygon fill="#343541" points="1654.824,1615.992 1680.074,1635.511 1627.38,1635.511 1612.324,1626.242 	"/>
	<polygon fill="#343541" points="1676.074,1598.492 1654.824,1615.992 1680.074,1635.511 1716.324,1632.742 	"/>
	<polygon fill="#343541" points="1720.824,1599.742 1760.324,1633.992 1737.324,1633.992 1717.824,1615.992 1708.324,1608.242 	"/>
	<polygon fill="#343541" points="1716.324,1632.742 1717.824,1615.992 1737.324,1633.992 	"/>
	<polygon fill="#252D3A" points="993.982,1517.81 996.064,1537.617 987.99,1635.511 985.324,1525.326 	"/>
	<polygon fill="#171625" points="1011.794,1536.174 1016.324,1635.511 987.99,1635.511 996.064,1537.617 	"/>
	<polygon fill="#1E1E1E" points="1050.103,1532.659 1044.824,1632.659 1016.324,1635.511 1011.794,1536.174 	"/>
	<polygon fill="#2D2D2D" points="1106.324,1519.055 1100.324,1573.711 1050.103,1635.511 1044.824,1632.659 1050.103,1532.659 	"/>
	<polygon fill="#161616" points="1118.902,1517.81 1120.725,1552.242 1100.324,1573.711 1106.324,1520.524 	"/>
	<polyline fill="#FCF170" points="1128.074,1635.511 1050.103,1635.511 1100.324,1573.711 1120.725,1552.242 	"/>
</g>
<g id="Layer_6">
	<path fill="#FFFFFF" d="M115.157,327.755"/>
	<rect x="287.549" y="341.609" fill="#FFFFFF" width="80.216" height="1172.736"/>
	<rect x="179.91" y="1470.713" fill="#FFFFFF" width="1785.994" height="72.869"/>
	<rect x="1620.048" y="349.353" fill="#FFFFFF" width="59.181" height="1167.894"/>
	<rect x="146.99" y="340.248" fill="#FFFFFF" width="1784.68" height="75.008"/>
	<rect x="146.99" y="1549.418" width="1845.175" height="83.241"/>
	<rect y="252.748" fill="#666A6B" width="296.181" height="1387.244"/>
	<rect fill="#666A6B" width="2067.324" height="340.403"/>
	<rect x="1676.074" y="272.011" fill="#666A6B" width="391.25" height="1363.5"/>
	<rect y="1540.658" fill="#666A6B" width="2067.324" height="441.334"/>
	<polyline fill="#565D7E" points="741.193,1252.742 796.657,1258.66 732.657,1271.994 726.904,1260.709 741.193,1252.742 	"/>
</g>
<g id="Layer_3">
	<polygon fill="#7F7F7F" points="989.619,600.904 911.424,629.935 876.031,669.275 989.619,941.61 	"/>
	<path fill="#171617" d="M1386.506,867.086"/>
	<path fill="#7F7F7F" d="M1021.324,596.468l-31.705,4.437V941.61l-22.295,79.134l5,22.766l49,7.02l23-9.916c0,0,14-3.441,17-4.531
		s33-26.854,36-30.472s19-24.22,20-26.919s9-26.463,12-37.081s4-37.384,5-41.001s16-11.617,16-11.617s4-23.264,5-26.632
		s4-25.855,4-25.855l-12-21.326V757.98l-5-37.253l-9-40.041c0,0-1-13.841-3-16.768s-26-26.059-26-26.059s-7-12.274-10-12.571
		S1021.324,596.468,1021.324,596.468z"/>
	<path fill="#7F7F7F" d="M875.741,663.64l113.878,273.407l-22.295,83.697l5,22.766l-24-16.224c0,0-21-18.032-26-22.663
		s-21-12.479-26-21.055s-10-19.613-11-24.595s-8-34.083-8-41.532s-11-23.994-11-23.994l-17-7.769c0,0,2-13.95,0-17.318
		s-10-35.578-10-38.473s0-13.61,0-13.61l27,2.39l-8-8.307c0,0,2-27.557,3-32.962s-0.917-47.973-0.917-47.973L875.741,663.64z"/>
	<path fill="#7F7F7F" d="M887.691,966.11v39.5c0,0-24.368,14.867-24.368,17.115s0,36.067,1,41.667s53,51.838,57,51.219
		s33,20.887,36,28.381s32,7.496,36,7.495s34,0.001,37,0s19-10.495,22-11.495s38-24.381,38-24.381l39-42.501v-22.581v-29.294
		l-15-15.625l-0.154-22.042L887.691,966.11z"/>
</g>
<g id="Layer_9">
	<polygon fill="#49515E" points="1313.324,1120.992 1275.574,1127.83 1270.824,1180.742 1277.324,1180.742 	"/>
	<polygon fill="#414A6B" points="1323.968,1106.415 1347.574,1122.742 1317.574,1158.994 1298.109,1146.244 1313.324,1120.992 	"/>
	<polygon fill="#13090F" points="1332.835,1098.602 1323.968,1106.415 1347.574,1122.742 1355.324,1114.492 	"/>
	<polygon fill="#41251E" points="1343.824,1089.492 1357.074,1096.992 1355.324,1114.492 1332.835,1098.602 	"/>
	<polygon fill="#A36A63" points="1357.074,1097.742 1372.574,1120.992 1376.324,1148.992 1355.324,1116.242 	"/>
	<polygon fill="#3B415D" points="1298.109,1146.244 1277.324,1180.742 1317.574,1158.994 	"/>
	<polygon fill="#3B415D" points="1355.489,1114.492 1317.574,1158.994 1357.074,1141.492 	"/>
	<polygon fill="#3B415D" points="1355.489,1114.492 1357.074,1141.492 1376.324,1148.992 	"/>
	<polygon fill="#0F1726" points="1372.574,1120.992 1376.324,1148.992 1392.574,1146.244 	"/>
	<polygon fill="#3B415D" points="1357.074,1141.492 1376.324,1148.992 1392.574,1146.244 1387.074,1168.992 	"/>
	<polygon fill="#3B415D" points="1357.074,1141.492 1326.574,1204.992 1387.074,1168.992 	"/>
	<polygon fill="#3B415D" points="1108.684,1215.218 1135.199,1275.659 1160.99,1258.659 1167.126,1191.004 	"/>
	<polygon fill="#6A7088" points="909.657,1179.992 886.263,1181.991 798.657,1209.326 897.824,1233.66 	"/>
	<polygon fill="#6B7763" points="969.074,1190.66 905.353,1200.814 897.824,1233.66 977.199,1249.987 	"/>
	<polyline fill="#C4DED7" points="799.88,1209.626 796.657,1210.657 796.657,1258.66 867.99,1292.992 897.824,1233.66 
		799.88,1209.626 	"/>
	<polygon fill="#3B415D" points="897.824,1233.66 867.99,1292.992 890.324,1339.992 914.824,1337.492 977.199,1249.987 	"/>
	<polygon fill="#1E2534" points="996.064,1249.987 998.824,1320.992 901.324,1353.992 977.199,1249.987 	"/>
	<polygon fill="#242D50" points="996.064,1249.987 998.824,1320.992 1069.324,1292.992 1031.491,1249.987 	"/>
	<polygon fill="#070909" points="700.99,1161.325 704.482,1119.967 771.36,1119.967 772.016,1122.318 732.657,1123.992 
		732.99,1229.992 715.324,1237.992 	"/>
	<polyline fill="#353A56" points="772.016,1122.318 732.657,1123.992 732.99,1229.992 794.985,1204.662 772.016,1122.318 	"/>
	<polyline fill="#3A3B71" points="794.985,1204.662 732.99,1229.992 715.324,1237.992 732.657,1271.994 796.657,1258.66 
		796.657,1210.657 794.985,1204.662 	"/>
	<polygon fill="#13090F" points="1219.67,1153.388 1211.583,1173.492 1270.824,1180.742 	"/>
	<polygon fill="#353A56" points="1211.236,1172.912 1212.49,1197.825 1247.824,1196.658 1249.534,1178.137 	"/>
	<polygon fill="#575D77" points="1269.324,1204.992 1270.824,1180.742 1249.534,1178.137 1247.824,1196.658 1268.324,1209.242 	"/>
	<polygon points="1211.236,1172.912 1214.324,1218.742 1165.472,1209.242 1167.126,1191.004 	"/>
	<polygon fill="#0A0A0A" points="1270.824,1180.742 1277.324,1180.742 1317.574,1158.994 1357.574,1141.492 1326.574,1204.992 
		1308.824,1216.492 1296.449,1186.867 1269.122,1205.85 	"/>
	<polygon fill="#939598" points="1268.324,1209.242 1273.074,1210.117 1296.449,1186.867 1269.122,1205.85 	"/>
	<polygon fill="#939598" points="796.657,1258.66 798.657,1291.492 847.241,1322.492 867.99,1292.992 	"/>
	<polygon fill="#342D50" points="732.657,1271.994 740.324,1286.826 798.602,1290.576 796.657,1258.66 	"/>
	<polygon fill="#939598" points="798.602,1290.576 802.155,1339.992 839.574,1334.242 847.241,1322.492 	"/>
	<polygon fill="#202020" points="890.324,1339.992 913.243,1337.653 901.324,1353.992 	"/>
	<polygon fill="#202020" points="867.99,1292.992 822.921,1357.742 901.324,1353.992 891.074,1339.992 	"/>
	<polygon fill="#4A3B5D" points="798.602,1290.576 802.574,1345.822 755.991,1287.834 	"/>
	<polygon fill="#50496A" points="740.324,1286.826 786.574,1353.992 802.574,1345.822 755.991,1287.834 	"/>
	<polygon fill="#262013" points="732.657,1271.994 715.324,1237.992 696.574,1309.492 	"/>
	<polygon fill="#202020" points="732.657,1271.994 711.761,1293.71 730.074,1293.71 	"/>
	<polygon fill="#1F1117" points="732.657,1271.994 730.074,1293.71 728.324,1331.742 728.324,1351.492 732.657,1358.992 
		735.074,1378.742 747.824,1378.742 784.074,1378.742 786.574,1353.992 	"/>
	<polygon fill="#202020" points="730.074,1293.71 711.761,1293.71 728.324,1333.992 	"/>
	<polygon fill="#202020" points="802.574,1345.822 786.574,1353.992 784.574,1373.792 807.574,1368.742 	"/>
	<polygon fill="#202020" points="839.243,1334.294 802.155,1339.992 822.921,1357.742 	"/>
	<polygon fill="#202020" points="802.155,1339.992 802.574,1345.822 807.574,1368.742 808.574,1373.792 833.574,1372.242 
		822.921,1357.742 	"/>
	<polygon fill="#202020" points="901.324,1353.992 833.574,1372.242 822.921,1357.742 	"/>
	<polygon fill="#202020" points="1392.574,1146.867 1390.765,1153.724 1394.824,1158.994 1398.199,1155.242 	"/>
	<polygon fill="#202020" points="1388.327,1163.808 1394.824,1158.994 1390.765,1153.724 	"/>
	<polygon fill="#70636A" points="1388.327,1163.808 1399.824,1170.367 1398.199,1155.242 1394.824,1158.994 	"/>
	<polygon fill="#202020" points="1388.327,1163.808 1387.074,1168.992 1399.824,1170.367 	"/>
	<polygon fill="#202020" points="1392.574,1178.992 1399.824,1170.367 1387.074,1168.992 	"/>
	<polygon fill="#0A0A0A" points="1359.846,1185.194 1387.074,1168.992 1392.574,1178.992 1373.074,1199.367 	"/>
	<polygon fill="#A86B5E" points="1399.824,1170.367 1392.574,1178.992 1396.199,1196.492 1405.574,1196.492 1409.574,1193.742 	"/>
	<polygon fill="#0A0A0A" points="1373.074,1199.367 1396.199,1196.492 1392.574,1178.992 	"/>
	<polygon fill="#202020" points="1409.574,1193.742 1399.824,1170.367 1415.199,1190.492 	"/>
	<polygon fill="#2D3456" points="1359.846,1185.194 1347.574,1192.496 1338.949,1204.992 1373.074,1207.492 1373.074,1199.367 	"/>
	<polygon fill="#202020" points="1330.018,1202.943 1336.199,1210.117 1338.949,1204.992 1347.574,1192.496 	"/>
	<polygon fill="#F6FAF3" points="1308.824,1216.492 1324.824,1227.492 1336.199,1210.117 1330.018,1202.943 	"/>
	<polygon fill="#202020" points="1415.199,1190.492 1409.574,1193.742 1405.574,1196.492 1415.199,1207.992 	"/>
	<polygon fill="#A36A63" points="1396.199,1196.492 1407.074,1207.492 1415.199,1207.992 1405.574,1196.492 	"/>
	<polygon fill="#202020" points="1338.949,1204.992 1335.707,1210.868 1373.074,1207.492 	"/>
	<polygon fill="#202020" points="1296.449,1186.867 1296.449,1217.992 1308.824,1216.492 	"/>
	<polygon fill="#202020" points="1296.449,1186.867 1283.881,1199.367 1288.199,1219.242 1296.449,1217.992 	"/>
	<polygon fill="#705751" points="1165.472,1209.242 1164.193,1223.345 1192.324,1238.993 1214.324,1225.326 1214.324,1218.742 	"/>
	<polygon fill="#414956" points="1212.657,1197.326 1247.824,1196.658 1247.824,1209.242 1242.657,1224.117 1214.324,1225.326 	"/>
	<polygon fill="#202020" points="1247.824,1196.658 1247.824,1210.868 1242.657,1224.117 1268.324,1224.117 1273.074,1210.117 
		1269.122,1209.39 	"/>
	<polygon fill="#C59995" points="1308.824,1216.492 1304.99,1233.332 1317.574,1235.326 1324.824,1227.492 	"/>
	<polygon fill="#563B34" points="1296.449,1217.992 1302.636,1236.659 1269.122,1245.326 1255.99,1227.492 1257.866,1224.117 
		1269.122,1221.764 	"/>
	<polygon fill="#202020" points="1257.866,1224.117 1242.657,1224.117 1233.657,1249.987 1245.761,1249.987 	"/>
	<polygon fill="#BFB59F" points="1164.394,1223.204 1160.791,1258.48 1192.346,1239.171 	"/>
	<polygon fill="#202020" points="1283.881,1199.367 1273.074,1210.117 1269.122,1221.764 1288.175,1219.134 	"/>
	<polygon fill="#202020" points="1308.824,1216.492 1296.449,1217.992 1302.636,1236.659 1304.99,1233.332 	"/>
	<polygon fill="#3A3A49" points="1214.324,1225.326 1206.157,1257.826 1233.657,1249.987 1242.657,1224.117 	"/>
	<polygon fill="#252D3A" points="1108.684,1215.218 1135.199,1275.659 1069.324,1292.992 1031.491,1249.987 	"/>
	<polygon fill="#070909" points="1214.324,1225.326 1182.233,1245.326 1173.324,1333.992 1189.898,1333.992 	"/>
	<polygon fill="#252D3A" points="1182.233,1245.326 1160.99,1258.659 1135.199,1275.659 1173.324,1333.992 	"/>
	<polygon fill="#070909" points="1234.074,1248.789 1231.99,1269.325 1207.019,1257.826 	"/>
	<polygon fill="#070909" points="1335.707,1210.868 1317.574,1235.326 1304.99,1255.659 1316.324,1257.826 1374.824,1212.325 
		1373.074,1207.492 	"/>
	<polygon fill="#070909" points="1373.074,1199.367 1373.074,1207.492 1374.824,1212.325 1396.199,1196.492 	"/>
	<polygon fill="#070909" points="1415.199,1207.992 1422.274,1215.218 1415.199,1190.492 	"/>
	<polygon fill="#A36B70" points="1304.99,1233.332 1302.636,1236.659 1299.991,1253.659 1304.99,1255.659 1317.574,1235.326 	"/>
	<polygon fill="#070909" points="833.574,1372.242 827.824,1388.992 839.243,1396.492 894.824,1393.992 901.324,1353.992 	"/>
	<polygon fill="#252D3A" points="901.324,1353.992 896.129,1385.961 998.824,1378.742 998.824,1320.992 	"/>
	<polygon fill="#2D3441" points="998.824,1320.992 998.824,1378.742 1106.324,1365.992 1106.324,1346.018 	"/>
	<polygon fill="#353A56" points="1114.24,1281.174 1069.324,1292.992 998.824,1320.992 1106.324,1346.018 1126.824,1295.992 	"/>
	<polygon fill="#1E1E1E" points="1135.199,1275.659 1114.24,1281.174 1126.824,1295.992 	"/>
	<polygon fill="#161616" points="1135.199,1275.659 1148.498,1295.992 1145.891,1328.845 1122.74,1305.958 	"/>
	<polygon fill="#1E1D2D" points="1145.891,1328.845 1142.892,1353.4 1106.324,1346.018 1122.74,1305.958 	"/>
	<polygon fill="#070909" points="1148.498,1295.992 1144.439,1339.992 1173.324,1333.992 	"/>
	<polygon fill="#070909" points="1207.019,1257.826 1193.824,1313.596 1206.157,1316.822 1231.99,1269.325 	"/>
	<polygon fill="#070909" points="1256.5,1226.576 1245.761,1249.987 1269.122,1245.326 	"/>
	<polygon fill="#070909" points="1231.99,1269.325 1245.761,1249.987 1233.657,1250.492 	"/>
	<polygon fill="#070909" points="1302.636,1236.659 1269.122,1245.326 1299.991,1253.659 	"/>
	<polygon fill="#2D2D2D" points="1106.324,1346.018 1106.324,1365.992 1108.684,1372.242 1145.824,1368.992 1145.824,1353.992 	"/>
	<polygon fill="#101010" points="1270.824,1245.785 1296.449,1271.992 1316.324,1257.826 	"/>
	<polygon fill="#161616" points="1231.99,1269.325 1222.201,1287.324 1245.761,1271.992 1247.688,1245.785 	"/>
	<polygon fill="#6B6B5E" points="1212.066,1305.958 1224.407,1323.992 1242.657,1274.012 1222.201,1287.324 	"/>
	<polygon fill="#070909" points="808.574,1373.792 808.574,1401.992 827.824,1388.992 833.574,1372.242 	"/>
	<polygon fill="#202020" points="711.761,1293.71 696.574,1309.492 722.209,1380.326 724.99,1349.492 728.324,1351.492 
		728.065,1333.364 	"/>
	<polygon points="1173.324,1333.992 1144.439,1339.992 1142.892,1353.4 1145.824,1353.992 1167.126,1357.326 	"/>
	<polygon points="1168.324,1368.992 1145.824,1368.992 1145.824,1353.992 1167.126,1357.326 	"/>
	<polygon fill="#161616" points="1173.324,1333.992 1167.126,1357.326 1187.324,1351.326 1189.898,1333.992 	"/>
	<polygon fill="#6A4150" points="1193.824,1313.596 1189.898,1333.992 1199.324,1333.992 1199.324,1320.992 1201.349,1315.564 	"/>
	<polygon fill="#343541" points="1167.126,1357.326 1168.324,1375.659 1201.349,1349.867 1187.324,1351.326 	"/>
	<polyline fill="#5D424A" points="1189.898,1333.992 1187.324,1351.326 1201.349,1349.867 1199.324,1333.992 	"/>
	<polygon fill="#343541" points="1212.066,1305.958 1210.69,1308.487 1220.992,1319.002 	"/>
	<polygon fill="#343541" points="1206.157,1316.822 1199.324,1320.992 1201.349,1315.564 	"/>
	<polygon fill="#12131F" points="1201.349,1349.867 1215.324,1336.242 1215.324,1325.992 1221.603,1319.894 1220.992,1319.002 
		1210.69,1308.487 1206.157,1316.822 1199.324,1320.992 1199.324,1334.992 	"/>
	<polygon fill="#343541" points="1224.407,1323.992 1221.603,1319.894 1215.324,1325.992 	"/>
	<polygon fill="#2D3450" points="1215.324,1336.242 1224.407,1323.992 1215.324,1325.992 	"/>
	<polygon fill="#343541" points="1216.949,1360.367 1221.603,1353.242 1219.971,1329.975 1215.324,1336.242 1212.066,1339.418 
		1215.324,1360.992 	"/>
	<polygon fill="#343541" points="1200.901,1350.217 1200.901,1360.992 1215.324,1360.992 1212.066,1339.418 	"/>
	<polygon fill="#414956" points="1221.603,1353.242 1223.199,1360.992 1216.949,1360.367 	"/>
	<polygon fill="#34252D" points="1184.237,1380.66 1178.122,1380.66 1168.324,1372.242 1200.901,1350.217 1200.901,1360.992 	"/>
	<polygon fill="#2D3441" points="1200.645,1377.337 1184.237,1380.66 1200.901,1360.992 	"/>
	<polygon fill="#343541" points="1185.99,1380.305 1185.99,1387.492 1178.122,1380.66 	"/>
	<polygon points="1296.449,1271.992 1339.907,1355.325 1392.574,1319.894 1334.384,1253.156 1316.324,1257.826 	"/>
	<polygon fill="#0A0A0A" points="1326.574,1245.785 1333.324,1253.659 1377.491,1232.659 1359.662,1224.117 	"/>
	<polygon fill="#101010" points="1401.074,1337.653 1392.574,1319.894 1334.384,1253.156 1376.209,1233.332 1435.991,1295.992 
		1440.657,1304.492 1434.99,1320.992 	"/>
	<polygon fill="#343541" points="1376.209,1211.299 1382.574,1215.218 1381.349,1207.492 	"/>
	<polygon fill="#0A0A0A" points="1359.662,1224.117 1376.209,1211.299 1382.574,1215.218 1376.209,1232.659 	"/>
	<polygon fill="#0A0A0A" points="1396.199,1196.492 1381.349,1207.492 1382.574,1215.218 1407.074,1207.492 	"/>
	<polygon fill="#0A0A0A" points="1376.209,1231.659 1381.349,1215.218 1407.074,1207.492 1407.511,1220.742 	"/>
	<polygon fill="#101010" points="1435.991,1295.992 1402.866,1222.362 1376.209,1231.659 1376.209,1233.332 	"/>
	<polygon fill="#F26A21" points="1407.074,1207.492 1407.185,1210.868 1413.074,1213.992 1415.199,1207.992 	"/>
	<polygon fill="#F58144" points="1422.274,1215.218 1412.324,1219.242 1413.074,1213.992 1415.199,1207.992 	"/>
	<polygon fill="#FDEA62" points="1407.511,1220.742 1407.185,1210.868 1413.074,1213.992 1412.324,1219.242 	"/>
	<polygon fill="#1E1E1E" points="1442.074,1277.742 1435.054,1295.011 1402.866,1222.362 1407.511,1220.742 	"/>
	<polygon fill="#494134" points="1422.274,1215.218 1452.824,1271.992 1442.074,1277.742 1407.511,1220.742 	"/>
	<polygon fill="#1E2534" points="1435.289,1294.433 1440.657,1304.492 1446.574,1312.992 1454.074,1298.742 1440.657,1281.229 	"/>
	<polygon points="1452.824,1271.992 1442.074,1277.742 1440.657,1281.229 1454.074,1299.742 1460.324,1287.992 	"/>
	<polygon fill="#343541" points="1339.907,1355.325 1348.324,1368.242 1356.074,1363.992 1347.99,1349.887 	"/>
	<polygon fill="#2D2D3A" points="1392.574,1319.894 1347.99,1349.887 1356.074,1363.992 1401.074,1337.653 	"/>
	<polygon fill="#343541" points="1440.657,1304.492 1434.99,1320.992 1446.574,1312.992 	"/>
	<polygon fill="#49494A" points="1385.644,1346.685 1417.324,1385.242 1454.074,1363.992 1434.99,1320.992 1401.074,1337.653 	"/>
	<polygon fill="#41251E" points="1452.824,1301.117 1485.824,1361.242 1474.574,1314.742 1460.324,1287.992 	"/>
	<polygon fill="#161D2D" points="1444.681,1314.299 1477.324,1373.242 1485.824,1361.242 1452.824,1301.117 	"/>
	<polygon fill="#0A0A0A" points="1434.99,1320.992 1454.074,1363.992 1466.701,1354.061 1444.681,1314.299 	"/>
	<path fill="#343541" d="M1269.122,1245.326"/>
	<polygon fill="#171625" points="1348.324,1371.742 1320.074,1333.992 1296.449,1293.492 1296.449,1271.992 1348.324,1368.242 	"/>
	<polygon fill="#2D1E24" points="724.99,1349.492 722.209,1378.742 735.074,1378.742 732.657,1358.992 	"/>
	<polygon fill="#4A506A" points="746.074,1378.742 746.074,1391.66 724.208,1397.992 722.209,1378.742 	"/>
	<polygon fill="#1F1117" points="746.074,1378.742 746.074,1391.66 785.258,1388.367 784.074,1378.742 	"/>
	<polygon fill="#161616" points="1466.701,1354.061 1457.57,1361.242 1493.657,1404.66 1477.324,1373.242 	"/>
	<polygon fill="#0A0A0A" points="1473.641,1312.992 1485.824,1361.242 1505.324,1387.993 	"/>
	<polygon fill="#161616" points="1457.57,1361.242 1479.804,1387.993 1429.79,1404.66 1417.324,1385.242 	"/>
	<polygon fill="#424250" points="1505.324,1387.993 1493.657,1404.66 1477.324,1373.242 1485.824,1361.242 	"/>
	<polygon fill="#0A0A0A" points="730.64,1053.913 640.99,1052.325 594.657,1065.217 606.324,1074.992 618.99,1080.325 
		672.99,1076.679 724.492,1063.118 	"/>
	<polygon fill="#637051" points="672.99,1076.679 692.324,1153.659 700.99,1161.325 704.482,1119.967 724.492,1063.118 	"/>
	<polygon fill="#939598" points="594.657,1065.217 582.657,1070.279 606.324,1074.992 	"/>
	<polygon fill="#070909" points="672.99,1076.679 618.99,1080.325 642.324,1096.326 	"/>
	<polygon fill="#070909" points="582.657,1070.279 569.324,1074.992 606.324,1074.992 	"/>
	<polygon fill="#070909" points="569.324,1074.992 570.99,1086.502 552.99,1094.659 	"/>
	<polygon fill="#070909" points="569.324,1074.992 570.99,1086.502 618.99,1080.325 604.853,1073.76 	"/>
	<polygon fill="#070909" points="618.99,1080.325 587.824,1084.336 634.741,1109.493 642.324,1096.326 	"/>
	<polygon points="672.99,1076.679 642.324,1096.326 634.741,1109.493 692.324,1153.659 	"/>
	<polygon fill="#070909" points="570.99,1086.502 587.824,1084.336 634.741,1109.493 614.407,1110.158 	"/>
	<path fill="#070909" d="M692.324,1153.659"/>
	<polygon points="613.574,1130.594 608.324,1150.992 692.033,1152.502 634.741,1109.493 	"/>
	<polygon fill="#939598" points="692.033,1152.502 715.324,1237.992 700.99,1161.325 	"/>
	<path fill="#939598" d="M630.824,1173.742"/>
	<polygon fill="#939598" points="657.558,1151.88 689.074,1258.242 715.324,1237.992 692.033,1152.502 	"/>
	<polygon fill="#939598" points="570.99,1086.502 552.99,1094.659 613.574,1130.594 634.741,1109.493 615.074,1110.137 	"/>
	<polyline fill="#493A50" points="660.83,1162.923 643.991,1164.326 663.532,1259.742 675.324,1264.992 689.074,1258.242 
		660.83,1162.923 	"/>
	<polyline fill="#0A0A0A" points="643.783,1151.782 608.324,1150.992 611.824,1199.492 625.406,1200.917 635.928,1251.309 
		663.532,1259.742 643.783,1151.782 	"/>
	<polygon fill="#202020" points="675.324,1264.992 666.532,1269.492 635.928,1251.309 660.338,1258.66 	"/>
	<polygon fill="#161616" points="715.324,1237.992 696.574,1309.492 666.532,1269.492 689.074,1258.242 	"/>
	<polygon fill="#202020" points="631.142,1228.386 620.824,1244.492 635.928,1251.309 	"/>
	<polygon fill="#202020" points="625.406,1200.917 611.824,1199.492 620.824,1244.492 631.142,1228.386 	"/>
	<polygon fill="#3B415D" points="563.303,1100.776 556.824,1110.158 611.824,1135.742 613.574,1130.594 	"/>
	<polyline points="552.99,1094.659 500.824,1118.26 502.074,1147.742 534.574,1157.967 540.574,1132.242 563.303,1100.776 	"/>
	<polygon fill="#2A1125" points="556.824,1110.492 569.074,1161.325 540.574,1132.242 	"/>
	<polygon fill="#0A0A0A" points="611.824,1135.742 569.074,1161.325 556.824,1110.492 	"/>
	<polygon fill="#202020" points="540.574,1132.242 535.579,1153.659 549.324,1181.992 558.824,1191.742 569.074,1161.325 	"/>
	<polygon fill="#202020" points="611.824,1135.742 600.898,1142.28 599.574,1174.992 609.44,1166.466 608.324,1150.992 	"/>
	<polygon fill="#393F5D" points="622.03,1244.969 608.324,1252.742 603.824,1273.742 651.324,1269.492 651.324,1260.456 
		635.928,1251.309 	"/>
	<polygon fill="#202020" points="599.574,1174.992 569.074,1161.325 600.898,1142.28 	"/>
	<polygon fill="#202020" points="501.082,1124.336 491.99,1139.659 501.082,1150.992 502.074,1147.742 	"/>
	<polygon fill="#202020" points="501.082,1124.336 491.99,1139.659 500.824,1103.659 	"/>
	<polygon fill="#1E2534" points="497.991,1072.636 491.99,1082.993 491.99,1139.659 500.824,1103.659 	"/>
	<polygon fill="#202020" points="535.579,1153.659 534.574,1157.967 545.928,1174.992 	"/>
	<polygon points="534.574,1157.967 518.074,1195.247 533.074,1208.242 546.492,1176.155 	"/>
	<polygon fill="#202020" points="546.492,1176.155 533.074,1208.242 535.579,1213.957 550.408,1183.104 	"/>
	<polygon fill="#101010" points="502.074,1147.742 501.082,1150.992 518.074,1195.247 534.574,1157.967 	"/>
	<polygon fill="#202020" points="609.44,1166.466 599.574,1174.992 611.824,1199.492 	"/>
	<polygon points="569.074,1161.325 564.076,1176.155 611.824,1199.492 599.574,1174.992 	"/>
	<polygon fill="#202020" points="544.663,1195.057 535.579,1213.957 550.408,1218.492 	"/>
	<polygon fill="#202020" points="550.408,1183.104 552.326,1199.492 558.824,1191.742 	"/>
	<polygon points="550.408,1183.104 544.663,1195.057 550.408,1218.492 558.824,1218.492 552.326,1199.492 	"/>
	<polygon fill="#343541" points="519.995,1196.911 530.324,1213.957 534.574,1211.664 533.074,1208.242 	"/>
	<polygon fill="#202020" points="558.824,1218.492 564.824,1221.992 554.616,1228.386 550.408,1218.492 	"/>
	<polygon fill="#202020" points="491.99,1139.659 475.824,1139.659 505.305,1161.992 501.082,1150.992 	"/>
	<polygon points="475.824,1139.659 454.99,1118.26 436.49,1152.502 	"/>
	<polygon points="505.305,1161.992 448.824,1169.826 475.824,1139.659 	"/>
	<polygon fill="#202020" points="436.49,1152.502 448.824,1169.826 475.824,1139.659 	"/>
	<polyline fill="#202020" points="550.408,1218.492 542.993,1225.826 546.701,1234.326 554.616,1228.386 550.408,1218.492 	"/>
	<polygon fill="#202020" points="552.326,1199.492 558.223,1216.734 563.074,1192.867 558.973,1191.299 	"/>
	<polygon fill="#202020" points="564.076,1176.155 558.973,1191.299 563.074,1192.867 566.199,1182.979 	"/>
	<polygon fill="#202020" points="611.824,1199.492 588.949,1200.799 566.199,1182.979 564.076,1176.155 	"/>
	<polygon fill="#202020" points="558.223,1216.734 563.074,1192.867 566.199,1182.979 588.949,1200.799 	"/>
	<polygon fill="#202020" points="611.824,1199.492 587.95,1212.742 588.949,1200.799 	"/>
	<polygon fill="#202020" points="620.824,1244.492 587.95,1212.742 611.824,1199.492 	"/>
	<path fill="#202020" d="M558.223,1216.734"/>
	<polygon fill="#202020" points="558.223,1216.734 558.824,1218.492 587.95,1212.742 588.949,1200.799 	"/>
	<polygon fill="#202020" points="564.824,1221.992 567.728,1216.734 558.824,1218.492 	"/>
	<polygon fill="#202020" points="594.805,1219.363 564.824,1221.992 567.728,1216.734 587.95,1212.742 	"/>
	<polygon fill="#202020" points="552.568,1229.923 560.324,1231.555 564.824,1226.742 564.824,1221.992 554.616,1228.386 	"/>
	<polyline fill="#202020" points="535.579,1221.326 527.761,1232.867 546.701,1234.326 542.993,1225.826 535.579,1221.326 
		535.579,1221.326 	"/>
	<polygon fill="#202020" points="530.324,1213.957 535.579,1213.957 534.574,1211.664 	"/>
	<polygon fill="#202020" points="474.991,1091.16 491.99,1090.493 491.99,1082.993 488.824,1082.326 	"/>
	<polygon fill="#202020" points="491.99,1071.66 488.824,1082.326 491.99,1082.993 497.991,1072.636 	"/>
	<polygon fill="#111F18" points="454.99,1118.26 463.991,1097.247 474.991,1091.16 491.99,1090.493 491.99,1139.659 
		475.824,1139.659 	"/>
	<polygon fill="#1F180E" points="436.49,1124.336 437.157,1135.908 444.507,1137.664 454.99,1118.26 463.991,1097.247 	"/>
	<polygon fill="#12131F" points="462.491,1080.826 463.991,1097.247 488.824,1082.326 	"/>
	<polygon points="470.99,1051.159 460.324,1065.326 461.49,1080.826 488.824,1082.326 491.99,1071.66 	"/>
	<polygon points="496.407,1071.66 488.824,1051.826 470.99,1051.159 491.99,1071.66 	"/>
	<polygon fill="#A87064" points="496.407,1052.159 496.407,1071.66 488.824,1051.826 	"/>
	<polygon fill="#25341F" points="454.491,1034.326 460.324,1065.326 470.99,1051.159 	"/>
	<polygon fill="#252525" points="470.99,987.659 454.491,1034.326 470.99,1051.159 479.324,1018.493 	"/>
	<polygon points="495.333,1052.112 479.324,1018.493 470.99,1051.159 	"/>
	<polygon fill="#0A0A0A" points="470.99,987.659 452.157,964.826 450.157,992.16 	"/>
	<polygon fill="#101010" points="439.324,1004.826 450.157,992.16 470.99,987.659 454.491,1034.326 	"/>
	<polygon fill="#202020" points="454.99,1036.98 453.23,1031.874 447.49,1034.428 	"/>
	<polygon fill="#706A5D" points="399.99,1007.826 404.49,1022.493 447.49,1034.428 453.23,1031.874 448.252,1022.191 	"/>
	<polygon fill="#262013" points="454.99,1036.98 458.805,1057.257 408.657,1045.993 404.49,1022.493 447.49,1034.428 	"/>
	<polygon fill="#202020" points="651.324,1260.456 651.324,1269.492 666.532,1269.492 	"/>
	<polygon fill="#1E1E1E" points="603.824,1273.742 652.657,1299.659 666.532,1300.825 666.532,1269.492 651.324,1269.492 	"/>
	<polygon fill="#202020" points="666.532,1269.492 666.532,1300.825 696.574,1309.492 	"/>
	<polygon fill="#2D2D2D" points="666.532,1299.326 684.324,1353.477 689.074,1313.852 696.574,1309.492 	"/>
	<polygon fill="#252525" points="722.209,1378.742 698.99,1391.66 684.324,1353.477 689.074,1313.852 696.574,1309.492 	"/>
	<polygon points="564.824,1221.992 564.824,1226.742 594.805,1240.993 594.805,1219.363 	"/>
	<polygon fill="#0A0A0A" points="620.824,1244.492 594.805,1240.993 594.805,1219.363 	"/>
	<polygon fill="#2D1E24" points="408.657,1045.993 399.449,1065.992 461.49,1080.826 460.324,1065.326 458.805,1057.257 	"/>
	<polygon fill="#262013" points="399.449,1065.992 377.824,1072.636 330.824,1086.502 463.991,1097.247 462.491,1080.131 	"/>
	<polygon fill="#77563A" points="322.824,1065.992 330.824,1086.502 377.824,1072.636 	"/>
	<polygon fill="#0A0A0A" points="452.157,964.826 421.324,941.992 421.324,973.492 450.157,992.16 	"/>
	<polygon fill="#0A0A0A" points="439.324,1004.826 421.324,973.492 450.157,992.16 	"/>
	<polygon fill="#0A0A0A" points="393.324,935.992 385.324,973.492 421.324,973.492 421.324,941.992 	"/>
	<polygon fill="#0A0A0A" points="435.449,996.8 391.324,983.492 385.324,973.492 421.324,973.492 	"/>
	<polygon fill="#0A0A0A" points="448.252,1022.191 439.324,1004.826 399.99,1007.826 	"/>
	<polygon fill="#0A0A0A" points="391.324,983.492 399.99,1007.826 439.324,1004.826 435.449,996.8 	"/>
	<polygon fill="#1E1E1E" points="330.824,1086.502 336.824,1124.336 397.407,1139.659 410.386,1145.492 436.49,1124.336 
		463.991,1097.247 	"/>
	<polygon fill="#0A0A0A" points="399.449,1065.992 375.824,1043.697 408.657,1045.993 	"/>
	<polygon points="385.324,1004.826 375.824,1043.697 408.657,1045.993 406.154,1031.874 404.49,1022.493 399.449,1004.826 	"/>
	<polygon fill="#2D1E24" points="399.449,1065.992 375.824,1039.875 319.824,1039.875 319.824,1059.867 	"/>
	<polygon fill="#262013" points="377.824,1072.636 322.824,1065.992 322.824,1059.867 399.449,1065.992 	"/>
	<polygon fill="#262013" points="375.824,1039.875 319.824,1039.875 312.324,1019.409 357.824,1018.493 368.324,1025.41 	"/>
	<polygon fill="#D7AD9F" points="437.157,1135.908 436.741,1128.678 394.824,1173.742 408.657,1184.512 436.49,1152.502 
		444.507,1137.664 	"/>
	<polygon fill="#957750" points="410.386,1145.492 388.324,1166.466 394.824,1173.742 436.741,1128.678 431.648,1126.312 	"/>
	<polygon fill="#B66A63" points="336.824,1124.336 343.074,1152.502 359.636,1161.325 377.824,1176.155 388.324,1166.466 
		410.386,1145.492 397.407,1139.659 	"/>
	<polygon fill="#0A0A0A" points="436.49,1150.027 412.532,1178.979 419.666,1184.512 440.857,1158.637 	"/>
	<polygon fill="#0A0A0A" points="447.49,1167.953 440.857,1183.104 426.61,1191.299 419.666,1184.512 440.857,1158.637 	"/>
	<polygon fill="#0A0A0A" points="456.436,1178.979 433.578,1195.247 440.857,1183.104 447.49,1167.953 	"/>
	<polygon points="319.824,1057.257 319.824,1039.875 312.324,1019.409 293.991,1018.493 279.324,1025.41 292.324,1037.875 	"/>
	<polygon fill="#1E1E1E" points="357.824,1018.493 329.324,999.993 280.292,999.993 293.991,1018.493 312.108,1019.398 
		312.324,1019.409 	"/>
	<polygon points="368.324,1025.41 375.824,1039.875 381.451,1026.973 373.53,1009.243 	"/>
	<polygon points="385.324,1004.826 369.99,1009.243 379.911,1026.973 	"/>
	<polygon fill="#151E39" points="365.99,975.659 369.99,1009.243 373.692,1008.176 385.324,1004.826 	"/>
	<polyline points="368.324,1025.41 352.759,1015.206 357.824,1012.017 369.99,1009.243 	"/>
	<polygon points="365.99,973.492 357.824,973.492 357.824,1012.017 369.99,1009.701 	"/>
	<polygon fill="#2D2D3A" points="350.324,995.659 357.824,1002.992 357.824,973.492 	"/>
	<polygon fill="#16160C" points="357.824,1012.017 351.657,1015.899 327.657,999.993 350.324,995.659 357.824,1001.659 	"/>
	<polygon fill="#2D2D2D" points="280.292,999.993 271.657,983.492 309.99,985.146 327.657,999.993 	"/>
	<polygon points="271.657,951.992 271.657,983.492 309.99,985.146 301.99,951.992 300.491,947.659 	"/>
	<polygon fill="#99343A" points="322.824,954.742 300.491,947.659 301.99,951.992 	"/>
	<polygon fill="#0A0A0A" points="357.824,973.492 322.824,954.742 301.99,951.992 309.99,985.146 327.657,999.993 350.324,995.659 	
		"/>
	<polygon fill="#415EA0" points="293.991,1018.493 271.657,1018.493 279.324,1025.41 	"/>
	<polygon fill="#0A0A0A" points="271.657,973.492 254.324,971.993 248.657,978.493 271.657,983.492 	"/>
	<polygon fill="#9FBC9A" points="244.99,969.326 248.657,978.493 254.324,971.993 	"/>
	<polygon fill="#0A0A0A" points="293.01,1016.793 271.657,1018.493 239.657,1013.509 224.324,999.993 248.657,978.493 
		271.657,983.492 	"/>
	<polygon points="184.324,969.326 184.324,1002.992 224.324,999.993 248.657,978.493 244.99,969.326 	"/>
	<polygon fill="#252D3A" points="240.809,1013.688 199.991,1013.688 184.324,1002.992 224.324,999.993 	"/>
	<polygon fill="#101010" points="271.657,1018.493 227.657,1026.973 202.991,1016.793 199.991,1013.688 240.809,1013.688 	"/>
	<polygon fill="#B57D70" points="173.991,1010.992 186.324,1016.793 192.324,1013.893 	"/>
	<polygon fill="#646457" points="271.657,1018.493 229.324,1026.973 248.657,1045.993 293.991,1039.05 	"/>
	<polygon fill="#2D1E24" points="319.824,1057.257 237.657,1070.326 248.657,1045.993 293.991,1039.05 	"/>
	<polygon fill="#574A51" points="240.809,1039.875 237.657,1070.326 247.68,1048.154 	"/>
	<polygon points="192.324,1013.893 225.657,1026.973 216.491,1063.41 	"/>
	<polygon points="241.195,1038.651 237.657,1070.326 216.491,1063.41 225.657,1026.973 229.324,1026.973 	"/>
	<polygon fill="#0A0A0A" points="173.991,1010.992 160.324,1006.841 171.657,1036.98 	"/>
	<polygon fill="#101010" points="192.324,1013.893 213.488,1057.257 185.657,1043.697 186.324,1016.793 	"/>
	<polygon fill="#0A0A0A" points="173.991,1010.992 171.657,1036.98 185.657,1043.697 186.324,1016.793 	"/>
	<polygon fill="#5D423A" points="160.324,1006.841 156.49,1004.326 160.324,1030.659 171.657,1036.98 	"/>
	<polygon fill="#0A0A0A" points="140.824,996.8 146.99,1023.993 160.324,1030.659 156.49,1004.326 	"/>
	<polygon points="115.157,999.326 115.157,1029.493 146.99,1023.993 140.824,996.8 	"/>
	<polygon fill="#262013" points="171.657,1036.98 127.324,1045.159 115.157,1029.493 146.99,1023.993 171.421,1036.353 	"/>
	<polygon fill="#25342D" points="187.114,1044.407 157.491,1059.867 128.991,1045.159 171.421,1036.353 	"/>
	<polygon fill="#1F180E" points="213.488,1057.257 181.157,1074.826 157.491,1059.867 187.114,1044.407 	"/>
	<polygon fill="#262013" points="319.824,1056.492 236.824,1070.326 294.824,1081.619 319.824,1059.867 	"/>
	<polygon fill="#262013" points="322.824,1065.992 294.824,1081.619 319.824,1059.867 322.824,1059.867 	"/>
	<polygon fill="#FEDB2D" points="324.514,1070.326 316.491,1076.247 328.919,1081.619 	"/>
	<polygon fill="#2D1E24" points="293.991,1081.619 308.824,1084.158 316.491,1076.247 324.514,1070.326 322.824,1065.992 	"/>
	<polygon fill="#414242" points="330.824,1086.502 308.824,1084.158 316.491,1076.247 329.657,1081.375 	"/>
	<polygon fill="#2D2516" points="237.375,1070.234 182.657,1095.492 184.157,1105.992 331.499,1086.557 	"/>
	<polygon fill="#262013" points="181.157,1074.826 182.657,1095.492 237.375,1070.234 216.491,1063.41 213.488,1057.257 	"/>
	<polygon fill="#777D95" points="305.973,1089.924 301.449,1097.247 334.07,1106.973 331.184,1086.502 	"/>
	<polygon fill="#2D1E24" points="184.157,1105.992 199.991,1137.664 270.073,1094.659 	"/>
	<polygon fill="#2D1E24" points="305.973,1089.924 270.073,1094.659 301.449,1097.247 	"/>
	<polygon fill="#492D25" points="203.99,1145.492 214.635,1128.678 199.991,1137.664 	"/>
	<polygon fill="#2D1E24" points="270.073,1094.659 232.324,1139.659 214.635,1128.678 	"/>
	<polygon fill="#262013" points="216.491,1137.664 214.635,1128.678 203.99,1145.492 220.657,1150.027 	"/>
	<polygon fill="#1F180E" points="232.324,1139.659 214.635,1128.678 216.491,1137.664 	"/>
	<polygon fill="#646A89" points="241.195,1150.992 220.657,1150.027 216.491,1137.664 232.324,1139.659 	"/>
	<polygon fill="#2D1E24" points="270.073,1094.659 232.324,1139.659 241.195,1150.992 	"/>
	<polygon fill="#2D1E24" points="276.324,1156.595 259.135,1115.997 241.195,1150.992 	"/>
	<polygon fill="#262013" points="334.07,1106.973 301.449,1097.247 305.973,1115.076 335.732,1117.455 	"/>
	<polygon fill="#2D1E24" points="270.073,1094.659 259.135,1115.997 301.449,1097.247 	"/>
	<polygon fill="#2D1E24" points="305.973,1115.076 301.449,1097.247 259.135,1115.997 270.073,1141.832 305.973,1128.678 	"/>
	<polygon fill="#2D1E24" points="335.732,1117.455 328.919,1126.312 305.973,1128.678 305.973,1115.076 	"/>
	<polygon fill="#3A3425" points="330.824,1166.466 320.853,1127.144 305.973,1128.678 270.073,1141.832 276.324,1156.595 	"/>
	<polygon fill="#6A6B78" points="335.732,1117.455 328.919,1126.312 336.824,1166.466 344.99,1167.27 342.739,1150.992 	"/>
	<polygon fill="#2D1E24" points="320.853,1127.144 330.824,1166.466 336.824,1166.466 328.919,1126.312 	"/>
	<polygon fill="#0A0A0A" points="236.824,1150.343 237.657,1161.325 274.324,1180.408 266.037,1154.954 	"/>
	<polygon fill="#354A6B" points="326.325,1165.651 326.325,1171.494 272.153,1173.742 266.037,1154.954 276.324,1156.595 	"/>
	<polygon fill="#1F1F13" points="342.739,1150.992 344.99,1167.27 377.824,1176.155 359.636,1161.325 	"/>
	<polygon fill="#161616" points="326.325,1171.494 328.919,1206.774 274.324,1180.408 272.153,1173.742 	"/>
	<polygon fill="#331811" points="388.324,1166.466 377.824,1176.155 373.605,1186.325 390.99,1209.646 408.657,1184.512 	"/>
	<polygon fill="#2D1E24" points="326.325,1169.826 347.324,1173.742 344.99,1167.27 326.325,1165.651 	"/>
	<polygon fill="#101010" points="364.657,1223.439 328.919,1206.774 326.325,1171.494 326.325,1169.826 347.324,1173.742 	"/>
	<polygon fill="#343541" points="377.824,1176.155 373.605,1186.325 344.99,1167.27 	"/>
	<polygon fill="#2D2516" points="412.532,1247.325 390.99,1209.646 373.605,1186.325 344.99,1167.27 364.657,1223.439 	"/>
	<polygon fill="#1F1F13" points="412.532,1178.979 390.99,1209.646 433.578,1228.386 433.578,1195.247 426.61,1191.299 	"/>
	<polygon fill="#D09A89" points="440.857,1183.104 426.61,1191.299 433.578,1195.247 	"/>
	<polygon fill="#2D2516" points="296.181,1191.299 290.324,1196.633 378.761,1230.477 364.657,1223.439 	"/>
	<polygon fill="#2D2D2D" points="401.961,1242.051 401.961,1280.992 314.991,1253.659 290.324,1196.633 378.761,1230.477 	"/>
	<polygon fill="#575D3A" points="433.578,1195.247 433.734,1208.242 461.991,1188.056 456.436,1178.979 	"/>
	<polygon points="448.991,1169.803 457.311,1180.408 473.49,1166.405 	"/>
	<polygon points="505.305,1161.992 473.49,1166.405 457.311,1180.408 461.991,1188.056 	"/>
	<polygon fill="#414134" points="390.99,1209.646 426.61,1244.492 428.324,1244.492 433.578,1229.992 433.578,1228.386 	"/>
	<polygon fill="#82423B" points="412.532,1247.325 421.324,1251.309 426.61,1244.492 390.99,1209.646 	"/>
	<polygon fill="#1F1F13" points="461.991,1188.056 433.734,1208.242 433.578,1229.992 473.49,1248.658 481.308,1216.734 	"/>
	<polygon points="505.305,1161.992 461.991,1188.056 481.308,1216.734 517.16,1192.867 	"/>
	<polygon fill="#343541" points="522.35,1200.799 508.673,1198.518 517.16,1192.867 	"/>
	<polygon fill="#343541" points="503.21,1202.154 505.951,1208.139 522.35,1209.396 522.35,1200.799 508.673,1198.518 	"/>
	<polygon points="487.305,1212.742 499.324,1223.439 503.21,1202.154 	"/>
	<polygon fill="#B07D70" points="433.578,1229.992 428.324,1244.492 451.402,1238.328 	"/>
	<polygon fill="#E69988" points="482.508,1215.936 489.576,1225.826 479.082,1225.826 481.308,1216.734 	"/>
	<polygon fill="#A39F95" points="499.324,1223.439 495.257,1234.326 489.576,1225.826 482.508,1215.936 487.305,1212.742 	"/>
	<polygon fill="#343541" points="522.35,1200.799 522.35,1209.626 530.324,1213.957 	"/>
	<polygon fill="#343541" points="426.61,1244.492 439.863,1255.992 473.49,1248.658 451.402,1238.328 	"/>
	<polygon fill="#252D3A" points="401.961,1242.051 401.961,1282.852 439.863,1255.992 	"/>
	<polygon fill="#3A3A3A" points="426.61,1244.492 422.612,1249.646 439.863,1255.992 	"/>
	<polygon fill="#2D3441" points="314.991,1253.659 344.99,1285.158 438.324,1318.992 401.961,1282.852 401.961,1280.992 	"/>
	<polygon fill="#343541" points="470.64,1247.325 439.863,1255.992 450.241,1262.451 	"/>
	<polygon fill="#252D3A" points="401.961,1282.852 439.863,1255.992 450.241,1262.451 	"/>
	<polygon fill="#1E2534" points="495.257,1262.451 448.824,1263.05 401.961,1282.852 438.324,1318.992 512.78,1269.492 	"/>
	<polygon fill="#D2B29F" points="466.228,1250.242 450.241,1262.451 497.032,1262.451 473.49,1248.658 	"/>
	<polygon fill="#331811" points="489.576,1225.826 479.082,1225.826 473.49,1248.658 491.99,1259.497 491.99,1249.987 
		499.324,1249.987 499.324,1242.051 495.257,1234.326 	"/>
	<polygon fill="#101010" points="438.324,1318.992 512.78,1269.492 508.673,1282.852 492.658,1299.326 	"/>
	<polygon fill="#F3F3E9" points="499.324,1249.987 503.21,1264.975 491.99,1259.497 491.99,1249.987 	"/>
	<polygon fill="#1B150B" points="503.21,1202.154 499.324,1223.439 508.673,1220.881 527.761,1212.565 521.658,1208.991 
		505.305,1206.774 	"/>
	<polyline fill="#343541" points="535.579,1213.957 535.579,1221.326 526.337,1223.534 507.046,1221.326 526.337,1211.791 
		534.574,1211.664 	"/>
	<polygon fill="#343541" points="505.305,1230.178 498.767,1240.993 495.257,1234.326 	"/>
	<polygon fill="#343541" points="507.947,1220.881 505.305,1230.178 495.257,1234.326 499.324,1223.439 	"/>
	<polygon fill="#343541" points="552.568,1229.923 546.701,1234.326 548.283,1234.927 560.324,1231.555 	"/>
	<polygon fill="#0F1320" points="599.887,1240.993 593.866,1253.659 599.574,1276.324 605.699,1250.242 	"/>
	<polygon fill="#343541" points="622.03,1244.969 608.324,1252.742 605.699,1250.242 599.887,1240.993 	"/>
	<polygon fill="#343541" points="603.824,1273.742 599.887,1273.742 605.699,1250.242 608.324,1252.742 	"/>
	<polygon fill="#FAF06B" points="593.866,1253.659 599.574,1276.324 599.574,1282.852 582.658,1282.852 	"/>
	<polygon fill="#343541" points="508.673,1221.992 527.761,1232.867 535.579,1221.326 527.284,1223.308 	"/>
	<polygon fill="#BCB19A" points="498.767,1240.993 512.78,1258.242 503.21,1264.975 498.767,1248.658 	"/>
	<polygon fill="#161616" points="507.947,1220.881 498.767,1240.993 512.78,1258.242 518.913,1227.826 	"/>
	<polygon points="560.324,1231.555 564.824,1226.742 594.805,1240.993 599.582,1241.636 597.094,1246.867 564.824,1240.993 	"/>
	<polygon fill="#343541" points="545.928,1235.586 560.324,1231.555 564.824,1240.993 	"/>
	<polygon fill="#3A2D34" points="525.458,1231.555 517.16,1262.451 512.78,1258.242 518.913,1227.826 	"/>
	<polygon fill="#343541" points="503.21,1264.975 513.542,1271.994 512.78,1258.242 	"/>
	<polygon fill="#3A1E16" points="525.458,1231.555 517.16,1262.451 540.574,1268.256 544.663,1244.492 	"/>
	<polygon fill="#343541" points="546.701,1234.326 527.284,1232.596 544.663,1244.492 	"/>
	<polygon fill="#343541" points="562.586,1240.353 542.993,1246.867 546.701,1234.326 	"/>
	<polygon points="597.094,1246.867 583.589,1280.426 556.824,1271.994 557.616,1255.992 564.824,1240.993 	"/>
	<polygon fill="#96574A" points="543.946,1248.658 540.574,1268.256 556.824,1271.994 557.616,1255.992 564.824,1240.993 
		562.586,1240.353 542.993,1246.867 	"/>
	<polygon fill="#2E3518" points="512.78,1258.242 512.78,1269.492 538.991,1282.852 540.574,1268.256 517.16,1262.451 	"/>
	<polygon fill="#2D2516" points="583.589,1280.426 538.991,1282.852 540.574,1268.256 558.973,1271.994 	"/>
	<polygon fill="#FFFFFF" points="639.183,1292.508 639.183,1300.825 643.991,1307.492 646.002,1296.127 	"/>
	<polygon fill="#343541" points="654.324,1299.326 643.991,1307.492 646.002,1296.127 	"/>
	<polygon fill="#1F1117" points="666.532,1299.326 654.324,1298.242 690.928,1397.992 700.074,1391.66 	"/>
	<polygon fill="#1E1E1E" points="643.991,1307.492 690.928,1397.992 654.324,1298.242 	"/>
	<polygon fill="#202020" points="642.701,1151.312 643.788,1164.072 660.664,1163.219 657.753,1152.075 	"/>
	<polygon fill="#0A0A0A" points="535.579,1213.957 550.408,1218.492 542.993,1225.826 535.579,1221.326 	"/>
	<polyline points="372.237,1013.258 369.941,1009.255 368.324,1025.41 	"/>
	<polygon points="375.824,1039.875 376.559,1040.688 377.949,1035.003 	"/>
	<polygon fill="#353A56" points="920.705,1239.848 926.85,1319.002 977.199,1249.987 	"/>
	<polyline fill="#343425" points="894.316,1157.692 796.657,1210.657 886.263,1181.991 894.316,1157.692 	"/>
	<polyline fill="#C4DED7" points="886.263,1181.991 912.324,1167.064 909.315,1180.742 886.263,1181.991 	"/>
	<polyline fill="#3B415D" points="778.406,1145.229 757.449,1142.28 761.781,1180.742 786.574,1171.494 778.406,1145.229 	"/>
	<polygon fill="#343541" points="735.074,1276.669 742.41,1286.826 798.602,1290.576 797.629,1274.618 	"/>
</g>
<g id="Layer_8">
	<polyline fill="#070909" points="751.991,1050.529 730.64,1053.913 724.492,1063.118 704.482,1119.967 771.36,1119.967 
		751.991,1049.154 	"/>
	<polygon fill="#778E95" points="923.714,1117.654 904.71,1200.917 969.074,1190.66 959.839,1150.029 927.574,1117.654 	"/>
	<polyline fill="#3B4163" points="959.839,1150.029 969.074,1190.66 977.199,1249.987 1031.491,1249.987 1108.684,1215.218 
		1085.412,1115.519 1049.241,1148.78 959.972,1150.036 	"/>
	<polyline fill="#070909" points="1134.988,1060.455 1134.988,1064.992 1146.824,1064.992 1145.076,1060.551 1134.988,1060.455 	"/>
	<polyline fill="#353A56" points="1135.931,1064.992 1136.574,1073.782 1085.412,1115.519 1108.684,1215.218 1211.583,1173.492 
		1146.824,1064.992 1135.931,1064.992 	"/>
	<polygon fill="#252534" points="1145.299,1061.117 1146.824,1064.992 1183.015,1125.628 1211.583,1061.117 	"/>
	<polyline fill="#070909" points="1204.657,1061.117 1240.657,1046.154 1256.324,1046.154 1204.657,1061.117 	"/>
	<polygon fill="#0A0A0A" points="1256.324,1046.154 1343.824,1089.492 1324.824,1105.242 1254.824,1075.698 1211.583,1061.117 
		1204.657,1061.117 	"/>
	<polygon fill="#070909" points="1211.583,1061.117 1183.015,1125.628 1195.32,1146.244 1211.583,1154.742 1214.324,1062.724 	"/>
	<polygon fill="#070909" points="1195.32,1146.244 1211.583,1173.492 1217.324,1157.992 	"/>
	<polygon fill="#070909" points="1214.324,1062.724 1211.236,1154.742 1217.324,1158.994 1252.514,1074.919 	"/>
	<polygon fill="#34413A" points="1252.514,1074.919 1219.67,1153.388 1270.824,1180.742 1275.574,1127.83 1313.324,1120.992 
		1324.824,1105.242 	"/>
	<polygon fill="#5D6370" points="910.631,1108.466 923.714,1117.654 927.574,1117.654 911.759,1105.062 	"/>
	<polygon fill="#5D6370" points="909.315,1180.742 886.263,1181.991 910.631,1108.466 923.714,1117.654 	"/>
</g>
<g id="Layer_1">
	<polyline fill="#5D5D50" points="904.71,1200.917 897.824,1233.66 920.705,1239.848 920.705,1197.825 904.71,1200.917 	"/>
	<path fill="#394050" d="M960.574,625.779"/>
	<polygon fill="#313947" points="990.869,620.779 996.074,687.279 960.574,685.279 960.574,623.779 	"/>
	<polygon fill="#5D6481" points="927.074,632.279 881.074,673.279 881.074,709.779 937.074,703.279 	"/>
	<polygon fill="#070909" points="960.574,623.779 927.074,632.279 934.213,682.971 960.574,679.779 	"/>
	<polygon fill="#4F3238" points="934.213,682.971 937.074,720.779 960.574,720.779 960.574,679.779 	"/>
	<polygon fill="#A47365" points="937.074,720.779 881.074,724.279 881.074,709.779 935.761,703.432 	"/>
	<polygon fill="#253156" points="1026.574,623.779 1024.074,682.971 1052.574,679.779 1047.574,625.779 	"/>
	<polygon fill="#26304F" points="916.574,623.779 913.621,644.271 881.074,673.279 874.574,664.779 	"/>
	<polygon fill="#5D3231" points="881.074,724.279 874.574,726.779 865.074,726.779 881.074,673.279 	"/>
	<polygon fill="#46395D" points="965.074,685.533 960.574,685.279 960.574,720.779 956.074,720.779 956.074,744.779 
		969.574,744.779 	"/>
	<polygon fill="#41404F" points="916.574,623.779 913.621,644.271 927.074,632.279 960.574,623.779 960.574,613.279 
		952.074,613.279 	"/>
	<polygon fill="#202020" points="986.574,596.779 952.074,613.279 962.824,613.279 990.869,605.029 	"/>
	<polygon fill="#0A0A0B" points="1024.074,596.779 1024.074,605.029 990.869,605.029 986.574,596.779 	"/>
	<polygon fill="#464757" points="990.869,620.779 990.869,605.029 960.574,613.279 960.574,623.779 	"/>
	<polygon fill="#484165" points="1024.074,605.029 1026.574,623.779 990.869,620.779 990.869,605.029 	"/>
	<polygon fill="#A0816B" points="1038.324,605.029 1024.074,596.779 1024.074,600.904 	"/>
	<polygon fill="#070909" points="1047.574,625.779 1052.574,679.779 1083.074,682.971 1086.074,636.779 	"/>
	<polygon fill="#202020" points="1024.074,605.029 1058.074,614.404 1038.324,605.029 1024.074,600.904 	"/>
	<polygon fill="#404757" points="1026.574,623.779 1024.074,605.029 1058.074,614.404 1086.074,636.779 	"/>
	<polygon fill="#4F65A1" points="1005.324,621.994 1005.324,637.279 1026.326,629.637 1026.574,623.779 	"/>
	<polygon fill="#384640" points="1102.574,644.271 1099.574,694.279 1082.574,694.279 1086.074,644.271 	"/>
	<polygon fill="#41404F" points="1038.324,605.029 1092.574,623.779 1065.449,620.614 	"/>
	<polygon fill="#41404F" points="1102.574,644.271 1086.074,644.271 1086.074,634.779 	"/>
	<polygon fill="#8C8C8C" points="990.869,620.779 992.16,637.279 1005.324,634.779 1005.324,621.994 	"/>
	<polygon fill="#B46C6C" points="1005.324,637.279 1005.324,644.271 1019.074,644.271 1026.326,629.637 	"/>
	<polygon fill="#14203D" points="992.16,637.279 1005.324,634.779 1005.324,644.271 992.708,644.271 	"/>
	<polygon fill="#070909" points="1024.074,687.279 996.074,687.279 992.708,644.271 1019.074,644.271 1026.326,629.637 	"/>
	<polygon fill="#6B5D73" points="1092.574,623.779 1066.208,620.904 1084.391,635.435 1102.574,644.271 	"/>
	<polygon fill="#202020" points="965.074,685.533 967.695,720.779 998.742,720.779 996.074,687.279 	"/>
	<polygon fill="#171617" points="1005.324,687.279 1005.324,720.779 998.742,720.779 996.074,687.279 	"/>
	<polygon fill="#3F2118" points="876.031,666.686 859.074,726.779 865.074,726.779 	"/>
	<polygon fill="#393946" points="881.074,673.279 865.074,726.779 876.575,667.396 	"/>
	<polyline fill="#171617" points="1024.242,682.971 1024.074,716.779 1054.824,715.029 1057.649,680.311 1052.48,678.765 
		1024.074,682.971 	"/>
	<polygon fill="#925041" points="998.096,719.779 998.742,759.529 1024.074,759.529 1024.074,720.779 	"/>
	<polyline fill="#8B4840" points="992.16,720.779 992.16,754.529 998.742,754.529 998.096,719.779 992.16,720.779 	"/>
	<polygon fill="#202020" points="874.574,726.779 868.908,781.279 875.826,780.083 882.574,724.279 878.824,722.873 	"/>
	<polygon fill="#30313E" points="865.389,725.724 863.24,742.112 863.24,781.279 868.908,780.083 874.574,726.779 	"/>
	<polyline fill="#41404F" points="857.574,742.112 857.574,815.529 863.24,781.279 863.24,742.112 857.574,742.112 	"/>
	<polygon fill="#41404F" points="839.324,815.529 856.074,824.029 861.324,814.029 	"/>
	<polygon fill="#27161F" points="863.24,781.279 876.574,780.083 871.116,819.029 857.574,821.172 857.574,814.285 	"/>
	<polygon fill="#171617" points="839.324,815.529 839.324,849.779 856.074,824.029 	"/>
	<polygon fill="#FFFFFF" points="841.074,819.029 843.324,827.279 848.824,823.154 	"/>
	<polyline fill="#723A2A" points="907.574,757.446 901.24,764.778 905.574,795.778 915.379,782.529 907.574,757.446 	"/>
	<polyline fill="#202020" points="927.824,757.446 906.574,757.446 915.379,781.279 927.824,780.083 927.824,757.446 	"/>
	<polyline fill="#5D4048" points="940.574,757.446 927.824,757.446 927.824,773.154 935.074,773.154 940.574,757.446 	"/>
	<path fill="#5D4048" d="M914.99,781.279c0.39,0-1.291,16.5-1.291,16.5l16.5-1.125l4.875-23.5h-7.25l-0.375,6.928L914.99,781.279z"
		/>
	<polyline fill="#5D4048" points="904.226,797.779 913.699,797.779 915.379,782.529 904.226,797.779 	"/>
	<polyline fill="#101010" points="940.574,757.446 935.074,773.154 929.574,797.779 927.824,814.654 941.824,814.654 
		940.574,757.446 	"/>
	<polygon fill="#101010" points="915.379,797.665 909.074,797.779 905.324,817.404 915.379,812.154 	"/>
	<polyline fill="#101010" points="904.226,797.665 883.019,828.779 899.824,853.279 909.802,839.779 904.226,831.154 
		909.802,797.779 904.226,797.665 	"/>
	<polygon fill="#101010" points="915.379,797.665 915.379,812.154 928.324,814.654 929.82,796.68 	"/>
	<path fill="#272827" d="M906.638,816.718"/>
	<polygon fill="#272827" points="904.226,830.154 927.095,814.417 915.661,811.779 906.638,816.718 	"/>
	<polygon fill="#8C473A" points="1092.574,623.779 1102.574,644.271 1130.24,673.279 1131.824,664.279 	"/>
	<polygon fill="#202020" points="1057.649,680.311 1054.824,715.029 1080.24,715.029 1083.365,682.971 	"/>
	<polygon fill="#925F50" points="1037.088,716.039 1038.324,754.529 1052.574,754.529 1054.824,715.029 	"/>
	<polyline fill="#272113" points="1024.074,716.779 1024.074,754.529 1038.324,754.529 1037.088,716.039 1024.074,716.779 	"/>
	<polygon fill="#202020" points="1054.824,715.029 1052.574,754.529 1054.824,759.529 1065.574,759.529 1080.24,737.112 
		1080.24,715.029 	"/>
	<polygon fill="#383938" points="1112.199,718.113 1119.574,749.529 1133.824,763.279 1130.24,716.779 1111.324,715.029 	"/>
	<polygon fill="#4F3F57" points="1131.824,665.279 1130.24,673.279 1130.24,687.279 1137.324,723.529 1142.324,726.029 	"/>
	<polyline fill="#383938" points="1121.04,694.279 1130.24,687.279 1137.324,723.529 1130.24,709.779 1121.04,694.279 	"/>
	<polyline fill="#101010" points="1130.24,718.113 1133.824,763.279 1142.324,808.029 1139.324,778.779 1134.824,726.029 
		1137.324,723.529 1130.24,709.779 1130.24,718.113 	"/>
	<polyline fill="#8C473A" points="1080.24,715.029 1103.585,716.99 1103.585,720.779 1080.24,715.029 	"/>
	<polygon fill="#202020" points="1080.24,757.779 1080.24,715.029 1099.736,719.779 1111.324,758.904 	"/>
	<polygon fill="#8C473A" points="1112.199,718.113 1103.585,716.99 1103.585,720.779 1113.074,721.838 	"/>
	<polygon fill="#884133" points="1119.574,749.529 1107.748,746.83 1099.736,719.779 1113.074,721.838 	"/>
	<polygon fill="#8C473A" points="1065.574,759.529 1080.24,736.967 1080.24,757.779 	"/>
	<polygon fill="#4F5EAA" points="1054.824,759.529 1066.407,769.529 1077.824,769.529 1082.062,757.845 	"/>
	<polygon fill="#27161F" points="1107.748,746.83 1111.324,758.904 1105.824,783.279 1126.324,820.029 1126.324,801.279 
		1116.074,792.029 1119.574,781.779 1119.574,749.529 	"/>
	<polygon fill="#73564F" points="1137.324,723.529 1134.824,726.029 1139.324,778.779 1146.574,788.029 1142.324,726.029 	"/>
	<polygon fill="#572928" points="1119.574,749.529 1119.574,781.779 1116.074,792.029 1126.324,801.279 1142.324,806.779 
		1134.824,763.688 	"/>
	<polygon fill="#FFFFFF" points="1112.574,818.779 1111.324,837.292 1126.324,825.029 	"/>
	<polyline fill="#313122" points="940.574,746.778 940.574,805.667 956.074,791.779 956.074,746.778 940.574,746.778 	"/>
	<path fill="#261630" d="M968.613,732.135c0,0,1.461,20.422,1.795,21.367c0.332,0.944,23,1.027,23,1.027L968.613,732.135"/>
	<polyline fill="#313122" points="956.074,744.779 956.074,791.779 967.695,791.113 967.695,782.529 981.01,781.279 
		969.574,744.849 956.074,744.779 	"/>
	<polygon fill="#F05924" points="941.824,814.654 943.74,828.445 960.908,827.611 978.24,817.404 	"/>
	<polygon fill="#263832" points="956.074,791.779 940.574,805.667 940.574,814.654 965.74,808.778 967.056,791.149 	"/>
	<polygon fill="#723A2A" points="981.01,781.279 967.056,782.529 965.74,808.778 988.74,808.778 	"/>
	<polygon fill="#101010" points="940.574,814.654 978.24,817.404 988.74,808.778 965.74,808.778 	"/>
	<polygon fill="#202020" points="927.74,814.654 920.705,818.815 933.24,825.472 942.207,817.404 941.818,814.364 	"/>
	<polygon fill="#101010" points="904.226,830.154 909.802,839.779 918.24,838.11 933.908,825.472 920.705,818.815 	"/>
	<polygon fill="#563931" points="856.074,824.029 839.324,849.779 841.074,867.279 857.574,849.779 	"/>
	<polyline fill="#101010" points="871.008,819.918 856.074,824.029 857.574,849.779 868.908,889.779 873.074,889.779 
		863.24,841.279 868.908,837.292 871.008,819.918 	"/>
	<path fill="#171617" d="M841.074,867.279c0,0,6.75,22.5,6.625,22.5s21.209,0,21.209,0l-11.334-40L841.074,867.279z"/>
	<polyline fill="#383121" points="883.574,828.445 863.24,841.279 873.074,889.779 892.143,861.279 883.574,828.445 	"/>
	<polygon fill="#27161F" points="883.019,828.445 892.143,861.279 899.824,853.279 	"/>
	<polygon fill="#4F2121" points="847.699,889.779 872.074,906.112 870.074,889.779 	"/>
	<polygon fill="#302818" points="878.318,881.941 873.074,889.779 870.074,889.779 870.574,897.945 879.074,897.945 	"/>
	<polygon fill="#B6BBA0" points="879.074,920.944 872.074,906.112 870.574,897.945 879.074,897.945 	"/>
	<polygon fill="#46383F" points="899.824,853.279 892.143,861.279 887.444,868.302 894.009,893.111 908.408,892.111 	"/>
	<polygon fill="#382830" points="877.692,882.877 891.421,903.611 894.009,893.111 887.444,868.302 	"/>
	<polygon fill="#171617" points="879.074,914.444 877.692,882.877 891.421,903.611 	"/>
	<polygon fill="#27161F" points="908.408,892.111 894.009,893.111 890.882,904.084 896.411,901.944 	"/>
	<polygon fill="#263832" points="879.074,921.943 879.074,914.444 890.882,904.084 898.908,914.444 894.009,933.61 	"/>
	<polygon fill="#924041" points="897.074,950.61 894.009,933.61 879.074,921.943 881.574,928.943 	"/>
	<polygon fill="#393F5D" points="891.421,964.776 885.85,953.109 881.574,928.943 897.074,950.61 901.074,955.776 	"/>
	<polygon fill="#5D6481" points="899.824,853.279 909.802,839.779 918.24,838.11 945.908,833.777 947.24,846.777 	"/>
	<polygon fill="#1F3028" points="942.207,817.404 918.24,838.11 945.908,833.777 	"/>
	<polygon fill="#070909" points="899.824,853.279 908.408,892.111 918.24,877.111 910.351,851.835 	"/>
	<polygon fill="#070909" points="947.24,846.777 910.351,851.835 911.292,854.849 947.24,849.779 	"/>
	<polygon fill="#BE6B6D" points="918.24,877.111 937.718,851.122 911.292,854.849 	"/>
	<polygon fill="#171617" points="998.742,754.529 972.145,753.896 988.74,808.778 	"/>
	<polygon fill="#654851" points="1001.24,802.902 988.74,808.778 998.742,754.529 	"/>
	<polygon fill="#F0F7EE" points="990.869,807.777 1001.24,802.902 1002.408,803.613 1002.408,836.113 998.074,837.292 
		998.742,808.778 992.574,809.946 	"/>
	<polygon fill="#0A0A0B" points="947.24,846.777 978.24,817.404 960.032,827.654 944.702,828.445 945.908,833.777 	"/>
	<polygon fill="#0A0A0B" points="988.74,808.778 991.385,807.534 992.574,809.946 996.638,808.74 996.638,815.945 987.24,821.55 
		987.24,808.778 	"/>
	<polygon fill="#504638" points="947.24,846.777 945.908,874.279 998.074,837.292 998.074,820.097 996.638,820.097 996.638,815.945 
		987.24,821.55 987.24,810.01 978.24,817.404 	"/>
	<polygon fill="#8C473A" points="996.638,808.74 996.638,820.097 998.074,820.097 998.742,808.778 	"/>
	<polygon fill="#8C473A" points="984.696,846.777 981.908,865.945 988.074,865.945 987.398,844.862 	"/>
	<polygon fill="#171617" points="999,759.529 1002.408,835.113 1023.408,835.113 1023.408,759.529 	"/>
	<rect x="1023.408" y="754.529" fill="#6C4F47" width="10.832" height="10.771"/>
	<polyline fill="#101010" points="1052.574,754.529 1043.908,777.446 1049.074,776.612 1049.908,769.362 1066.407,769.529 
		1054.824,759.529 1052.61,753.896 	"/>
	<polygon fill="#3F3138" points="1039.24,794.113 1023.408,795.028 1023.408,787.946 1042.908,782.529 	"/>
	<polygon fill="#302850" points="1048.988,764.742 1033.658,765.684 1033.658,754.542 1053.074,752.125 	"/>
	<polygon fill="#3F3828" points="1023.408,765.3 1023.408,787.946 1042.908,782.529 1048.988,764.742 	"/>
	<polygon fill="#202020" points="1023.408,795.028 1023.408,835.113 1039.24,794.113 	"/>
	<polygon fill="#814838" points="1049.074,776.612 1044.645,777.446 1033.158,809.865 1050.408,808.74 	"/>
	<polygon fill="#272827" points="1049.908,769.362 1049.074,776.612 1050.408,808.74 1037.088,809.865 1054.824,818.815 
		1068.443,813.091 1068.443,769.362 	"/>
	<polygon fill="#4F5150" points="1077.824,769.529 1068.443,769.362 1068.443,813.091 1065.975,814.364 1086.74,817.404 
		1087.908,791.149 1073.908,790.154 	"/>
	<polygon fill="#202020" points="1082.062,757.845 1086.24,771.78 1108.418,771.78 1109.208,768.279 	"/>
	<polygon fill="#0F1813" points="1076.53,776.344 1087.074,777.446 1086.24,771.78 1082.062,757.845 1077.824,769.529 	"/>
	<polygon fill="#272837" points="1079.688,757.845 1112.908,758.904 1109.208,768.279 	"/>
	<polygon fill="#935F47" points="1002.408,835.113 1003.824,842.145 1023.408,842.145 1023.408,833.777 	"/>
	<polygon fill="#4F5EAA" points="987.398,844.862 988.74,850.813 1003.824,842.145 1002.408,835.113 998.074,837.292 	"/>
	<polygon fill="#4F5EAA" points="1023.408,843.528 1031.324,842.145 1030.246,817.404 1023.408,835.113 	"/>
	<polygon fill="#302027" points="1068.443,895.529 1039.24,865.945 1032.886,810.566 1073.24,849.446 	"/>
	<polygon fill="#313947" points="1003.824,842.145 1005.824,877.111 1025.074,876.029 1023.408,842.145 	"/>
	<polygon fill="#313122" points="1001.24,843.528 1001.24,885.957 991.939,884.779 991.939,871.974 979.574,871.974 
		981.908,865.945 987.398,865.945 987.343,851.835 	"/>
	<polygon fill="#46383F" points="945.908,874.279 953.815,895.529 981.908,865.945 984.696,846.777 	"/>
	<polygon fill="#202020" points="947.574,849.529 937.718,851.122 937.718,874.279 945.908,874.279 	"/>
	<polygon fill="#0A0A0B" points="1023.475,843.528 1024.126,856.777 1039.24,865.945 1037.074,848.529 1031.324,842.145 	"/>
	<polygon fill="#070909" points="1073.24,849.446 1072.37,857.81 1080.824,859.112 1079.324,868.302 1071.523,865.945 
		1079.074,874.279 1078.074,893.111 1069.042,889.779 1092.574,928.943 1118.824,853.279 	"/>
	<polygon fill="#D2B6AD" points="1024.126,856.777 1024.126,867.029 1041.783,867.029 	"/>
	<polygon fill="#1F2846" points="1003.824,842.145 1001.24,843.528 1001.24,877.111 1005.824,877.111 	"/>
	<polygon fill="#6C6CA0" points="1080.824,859.112 1072.37,857.81 1071.523,865.945 1079.324,868.302 	"/>
	<polygon fill="#463F31" points="1078.074,893.111 1069.042,889.779 1071.523,865.945 1079.074,874.279 	"/>
	<polygon fill="#6C7393" points="1087.074,777.446 1076.53,776.344 1073.908,790.154 1087.908,791.149 	"/>
	<polygon fill="#575864" points="1086.24,771.78 1087.117,778.154 1105.994,782.529 1108.418,771.78 	"/>
	<polygon fill="#101010" points="1103.585,836.241 1086.74,817.404 1087.908,791.149 1087.117,778.154 1105.994,782.529 
		1126.324,820.029 1126.324,825.029 1112.574,818.779 	"/>
	<polygon fill="#101010" points="1139.458,780.083 1142.324,806.779 1146.574,847.779 1148.824,820.097 1146.574,788.029 	"/>
	<polygon fill="#57513F" points="1126.324,801.279 1126.324,818.779 1132.324,829.297 1144.947,832.091 1142.324,806.779 	"/>
	<polygon fill="#8C725D" points="1024.126,867.029 1024.126,877.111 1027.366,885.957 1048.074,889.194 1040.31,867.029 	"/>
	<rect x="1001.24" y="877.111" fill="#415794" width="4.584" height="7.918"/>
	<polygon fill="#0D090A" points="937.718,851.122 918.24,877.111 937.718,874.279 	"/>
	<polyline fill="#574F72" points="981.488,867.029 979.574,871.974 976.074,882.877 965.301,883.433 981.908,865.945 	"/>
	<polygon fill="#7288AD" points="991.939,871.974 979.574,871.974 976.074,882.877 974.824,889.194 979.574,893.111 
		991.939,892.111 	"/>
	<path fill="#302818" d="M937.718,874.279c0,0-7.645,6.583-7.395,6.792s1.75,35.959,1.75,35.959l21.222-22.896l-7.388-19.854
		H937.718z"/>
	<polygon fill="#070909" points="918.24,877.111 908.408,892.111 928.796,920.944 932.074,917.029 930.324,881.07 937.718,874.279 	
		"/>
	<polygon fill="#27161F" points="965.301,883.433 976.074,882.877 974.824,887.779 974.824,931.779 965.301,931.779 
		953.295,894.133 	"/>
	<polygon fill="#D8A492" points="979.574,893.111 978.24,933.61 976.074,955.029 965.301,931.779 973.604,931.779 974.824,889.194 	
		"/>
	<polygon fill="#202130" points="991.939,883.433 991.939,893.111 998.074,901.529 1003.824,898.661 1027.366,885.029 	"/>
	<polygon fill="#8C8188" points="1024.126,876.083 1005.824,877.111 1005.824,884.059 1027.366,885.029 	"/>
	<path fill="#6C7393" d="M884.556,851.835"/>
	<polygon fill="#171617" points="979.574,893.111 998.074,909.445 998.577,901.278 991.939,892.111 	"/>
	<polygon fill="#3F466B" points="978.24,936.277 978.809,892.48 998.074,909.445 1013.074,911.779 1013.074,935.279 
		1005.824,936.277 998.074,923.279 	"/>
	<polygon fill="#393946" points="1027.366,885.029 1021.074,903.611 1048.074,889.194 	"/>
	<polygon fill="#41404F" points="998.577,901.278 998.074,909.445 1013.074,911.779 1021.074,903.611 1027.366,885.029 	"/>
	<polygon fill="#81828C" points="978.24,936.277 975.604,954.016 981.908,954.016 987.344,930.311 	"/>
	<polygon fill="#441717" points="953.295,894.133 928.796,920.944 953.295,954.016 976.074,955.029 	"/>
	<polygon fill="#6C7393" points="1112.574,818.779 1103.585,836.241 1110.103,843.528 1111.324,837.292 	"/>
	<polygon fill="#794131" points="1021.074,903.611 1037.574,917.029 1037.574,898.661 1044.574,895.654 1044.574,889.943 	"/>
	<polygon fill="#070909" points="987.344,930.311 981.908,954.016 1012.72,956.029 1005.824,936.277 998.074,923.279 	"/>
	<polygon fill="#302027" points="1021.074,903.611 1013.074,911.779 1030.246,911.07 	"/>
	<polygon fill="#070909" points="1126.324,818.779 1126.324,825.029 1111.324,836.241 1110.103,843.528 1123.574,859.112 
		1123.824,844.862 1132.324,829.297 	"/>
	<polygon fill="#0A0A0B" points="1148.824,820.097 1165.074,833.777 1158.324,837.961 	"/>
	<path fill="#5E5D4F" d="M1132.324,829.297l-8.5,15.565c0,0-0.75,12.583-0.25,14.25s14.25,21.443,14.25,21.443l8.75-32.776
		l-1.627-15.688L1132.324,829.297z"/>
	<polygon fill="#46383F" points="1118.824,851.835 1104.65,894.133 1112.574,904.084 1126.324,904.084 1137.824,880.556 
		1123.574,859.112 	"/>
	<polygon fill="#0A0A0B" points="1040.31,867.029 1048.074,889.194 1048.074,931.779 1054.074,933.61 1068.443,895.529 	"/>
	<polygon fill="#0F0E13" points="1030.246,911.07 1037.574,917.029 1037.574,898.661 1044.574,895.654 1046.074,954.016 
		1030.246,955.029 1030.246,946.859 1015.324,942.163 	"/>
	<polygon fill="#171617" points="1148.824,820.097 1146.574,847.779 1152.164,856.777 1152.898,827.757 	"/>
	<polygon fill="#070909" points="1137.824,880.556 1133.601,889.194 1136.324,900.32 1156.949,888.279 1159.324,868.302 
		1146.574,847.779 	"/>
	<path fill="#6C7393" d="M1152.898,827.757"/>
	<polygon fill="#ABA48C" points="1158.324,837.961 1159.324,868.302 1165.074,833.777 	"/>
	<polygon fill="#142118" points="1152.898,827.757 1152.164,856.777 1159.324,868.302 1158.324,837.292 	"/>
	<polygon fill="#393946" points="1013.074,911.779 1013.074,935.279 1015.324,942.163 1030.246,911.07 	"/>
	<polygon fill="#171617" points="1005.824,936.277 1012.72,956.029 1015.324,942.163 1013.074,935.279 	"/>
	<polygon fill="#31385D" points="1048.074,889.194 1044.574,891.063 1046.074,954.016 1054.074,933.61 1048.074,930.311 	"/>
	<polygon fill="#211116" points="1069.042,889.779 1068.443,895.529 1054.074,933.61 1065.074,945.654 1073.24,945.654 
		1092.574,928.943 	"/>
	<polygon fill="#302027" points="1104.65,894.133 1092.574,928.943 1107.324,935.279 1113.074,911.779 1112.574,904.084 	"/>
	<polygon fill="#27161F" points="908.408,892.111 896.411,901.944 890.882,904.084 898.908,914.444 	"/>
	<polygon fill="#383938" points="922.315,911.779 898.908,914.444 908.408,892.111 	"/>
	<polygon fill="#6C6CA0" points="906.574,928.943 922.315,911.779 898.908,914.444 	"/>
	<polygon fill="#27161F" points="973.604,954.919 973.604,983.029 1010.574,983.029 1010.574,977.279 1016.595,977.529 
		1021.66,981.779 1049.324,983.029 1046.074,954.016 1030.246,954.016 1012.72,954.016 973.604,954.016 	"/>
	<polygon fill="#101010" points="898.908,914.444 904.574,923.279 906.324,950.61 901.074,955.776 897.074,950.61 894.009,933.61 	
		"/>
	<polygon fill="#211116" points="904.71,925.42 956.824,1002.029 958.824,1009.279 947.574,1006.529 912.324,971.779 
		906.324,950.61 	"/>
	<polygon fill="#21170F" points="922.315,911.779 906.324,928.471 924.505,955.776 953.295,954.016 	"/>
	<polygon fill="#642028" points="906.324,950.61 891.421,964.776 912.324,971.779 	"/>
	<polygon fill="#3F2118" points="924.505,955.776 953.295,954.016 973.604,954.919 973.604,974.779 937.718,973.943 	"/>
	<polygon fill="#172131" points="1015.324,942.163 1012.72,954.016 1030.246,954.016 1030.246,946.859 	"/>
	<polygon fill="#3F466B" points="1054.074,933.61 1048.074,946.859 1065.074,945.654 	"/>
	<polygon fill="#0A0A0B" points="1133.601,889.194 1126.324,904.084 1136.324,900.32 	"/>
	<polygon fill="#0A0A0B" points="1112.574,904.084 1113.074,912.279 1107.324,935.279 1131.324,920.946 1133.601,901.529 	"/>
	<polygon fill="#8C8D9B" points="1092.574,928.943 1095.408,956.029 1107.324,935.279 	"/>
	<polygon fill="#382830" points="1048.879,946.859 1045.241,954.111 1065.908,955.029 1073.24,945.654 1064.417,944.936 	"/>
	<polygon fill="#0A0A0B" points="1092.574,928.943 1073.24,945.654 1065.908,955.029 1095.408,956.029 	"/>
	<polyline fill="#303131" points="1046.074,954.148 1048.074,972.612 1084.408,972.612 1095.408,956.029 1046.074,953.779 	"/>
	<polygon fill="#0A0A0B" points="1131.324,920.946 1106.574,935.279 1101.366,945.654 1115.741,945.654 1133.601,920.946 	"/>
	<polygon fill="#202130" points="1133.601,901.529 1133.601,920.946 1131.324,920.946 	"/>
	<polygon fill="#5D73A2" points="1048.074,972.612 1052.408,1021.613 1084.408,972.612 	"/>
	<polygon fill="#0A0A0B" points="1101.366,945.654 1058.777,1011.86 1066.241,1011.86 1115.741,945.654 	"/>
	<polygon fill="#253156" points="1133.601,920.946 1129.908,939.654 1114.839,946.859 	"/>
	<polygon fill="#6C7393" points="1052.408,1021.613 1058.777,1011.86 1066.241,1011.86 	"/>
	<polygon fill="#9A9A8D" points="891.421,964.776 885.85,953.109 888.074,969.779 	"/>
	<polygon fill="#AC92AB" points="973.604,974.779 937.718,973.943 956.955,1002.506 973.604,983.029 	"/>
	<polygon fill="#FBF8C7" points="1010.574,977.279 1011.464,1027.654 1052.408,1021.613 1050.717,1002.506 1021.66,981.779 
		1016.595,977.529 	"/>
	<polygon fill="#5D73A2" points="1048.996,983.029 1021.66,981.779 1050.717,1002.506 	"/>
	<polygon fill="#B7888C" points="973.604,983.029 956.955,1002.506 958.824,1009.279 969.074,1020.404 1011.464,1027.654 
		1010.675,983.029 	"/>
	<polygon fill="#6C7393" points="947.574,1006.529 969.074,1020.404 958.824,1009.279 	"/>
	<path fill="#6C7393" d="M932.406,991.576"/>
	<polygon fill="#0A0A0B" points="1114.839,945.654 1087.258,983.749 1086.24,997.113 1129.908,939.654 	"/>
	<polygon fill="#0F1512" points="1048.074,1022.253 1048.074,1043.777 1077.074,1019.611 1076.24,1013.467 1071.55,1004.76 
		1066.241,1011.86 	"/>
	<polygon fill="#4F3F57" points="1087.258,983.749 1071.55,1004.76 1086.24,997.113 	"/>
	<polyline fill="#0A0A0B" points="1115.741,976.561 1099.949,994.966 1086.24,1010.943 1076.24,1013.467 1086.24,997.113 
		1129.908,939.654 	"/>
	<polygon fill="#0A0A0B" points="1104.408,1002.467 1077.074,1019.611 1076.24,1013.467 1085.861,1011.039 1099.949,994.966 	"/>
	<polygon fill="#4F3F57" points="1086.24,997.113 1071.55,1004.76 1076.24,1013.467 	"/>
	<polygon fill="#6C6CA0" points="1033.158,809.865 1030.246,817.404 1031.324,842.145 1037.347,849.446 	"/>
	<polygon fill="#6C6CA0" points="1086.74,817.404 1068.443,813.091 1054.824,818.815 1037.088,809.865 1033.158,809.865 
		1073.24,849.446 1118.332,853.048 	"/>
	<polygon fill="#504638" points="987.398,844.862 987.343,851.835 989.076,850.8 	"/>
	<polygon fill="#876C64" points="1118.332,1013.467 1121.237,1038.779 1095.408,1043.777 1101.366,1011.86 	"/>
	<path fill="#6C7393" d="M1104.408,1002.467"/>
	<polygon fill="#797466" points="1104.408,1002.467 1099.949,994.966 1115.741,975.446 	"/>
	<polygon fill="#925057" points="1118.332,1013.467 1104.408,1012.148 1104.408,1001.78 1115.741,975.446 	"/>
	<polygon fill="#878173" points="1095.408,1043.777 1095.408,1054.947 1109.74,1057.447 1121.237,1038.779 	"/>
	<polygon fill="#A68C89" points="1104.345,1002.506 1104.408,1012.148 1101.366,1011.86 1095.562,1042.945 1087.258,1041.781 
		1087.258,1013.467 	"/>
	<polygon fill="#464639" points="1118.708,1016.736 1133.074,1025.948 1136.574,1073.782 1121.237,1038.779 	"/>
	<path fill="#6C7393" d="M1087.258,1013.467"/>
	<polygon fill="#171617" points="1071.55,1024.215 1048.074,1043.777 1073.408,1025.783 1087.258,1013.467 1077.074,1019.611 	"/>
	<polygon fill="#5D6481" points="1065.574,1042.945 1073.408,1025.783 1087.258,1013.467 1087.258,1041.781 	"/>
	<polygon fill="#101010" points="1121.237,1038.779 1109.74,1057.447 1093.574,1081.284 1081.408,1118.785 1136.574,1073.782 	"/>
	<polygon fill="#999388" points="1095.562,1042.945 1087.258,1040.951 1093.574,1081.284 1095.408,1054.947 	"/>
	<polygon fill="#30313E" points="1109.74,1057.447 1095.408,1054.947 1093.574,1081.284 	"/>
	<polygon fill="#393F5D" points="1073.408,1025.783 1048.074,1043.777 1041.074,1047.118 1035.408,1063.118 1060.74,1063.118 
		1066.241,1042.909 	"/>
	<polygon fill="#0A0A0A" points="1095.408,1081.284 1076.24,1091.451 1052.408,1088.285 1060.74,1063.118 1066.241,1042.909 
		1087.24,1041.451 	"/>
	<path fill="#6C7393" d="M932.406,991.576"/>
	<polygon fill="#6C7393" points="891.421,964.776 888.074,969.779 894.009,975.654 	"/>
	<polygon fill="#642139" points="912.324,971.779 891.421,964.776 894.009,975.654 947.574,1026.779 935.324,1010.529 	"/>
	<polygon fill="#995C64" points="923.074,981.779 912.324,971.779 935.324,1010.529 947.574,1026.779 946.699,1021.404 	"/>
	<polygon fill="#202020" points="923.938,983.229 946.699,1021.404 947.574,1026.779 977.949,1045.654 968.43,1019.989 
		929.81,988.225 	"/>
	<polygon fill="#162821" points="968.43,1019.989 977.949,1046.154 1004.298,1026.429 	"/>
	<polygon fill="#101010" points="1010.574,1027.154 1004.298,1026.429 977.199,1046.154 1019.324,1049.154 	"/>
	<polygon fill="#171617" points="1048.074,1022.253 1010.574,1027.154 1019.324,1049.154 1040.967,1047.419 1048.074,1043.777 	"/>
	<polygon fill="#26304F" points="888.074,969.779 899.574,994.529 915.093,995.777 	"/>
	<polygon points="888.074,969.779 885.324,1010.779 899.574,994.529 	"/>
	<polygon fill="#383157" points="899.574,994.529 922.449,1013.467 934.647,1014.441 915.093,995.777 	"/>
	<polygon fill="#1E1E1E" points="885.919,1001.902 860.324,1022.253 868.074,1070.279 883.324,1037.029 885.324,1010.279 	"/>
	<polygon fill="#101010" points="899.574,994.529 885.324,1010.654 884.567,1020.404 905.449,1015.029 	"/>
	<polygon fill="#16160C" points="922.449,1013.467 905.449,1015.029 899.574,994.529 	"/>
	<polygon points="905.449,1015.029 884.567,1020.404 883.423,1035.703 906.699,1032.029 	"/>
	<polygon fill="#1E2440" points="918.07,1013.869 914.449,1040.529 945.199,1042.154 947.574,1026.779 934.647,1014.441 
		922.085,1013.166 	"/>
	<polygon fill="#101010" points="906.699,1032.029 883.423,1035.703 896.324,1056.029 909.074,1053.904 	"/>
	<polygon fill="#635D42" points="918.07,1013.869 905.449,1015.029 906.699,1032.029 909.074,1054.404 912.324,1053.904 
		914.449,1040.529 	"/>
	<polygon fill="#262013" points="883.423,1035.703 896.324,1056.029 913.699,1078.779 927.574,1117.654 868.074,1070.279 	"/>
	<polygon fill="#27161F" points="909.074,1054.404 909.021,1053.913 896.324,1056.029 913.212,1078.144 913.212,1053.913 	"/>
	<polygon fill="#101010" points="914.449,1040.529 912.699,1053.913 912.699,1077.47 935.449,1089.904 956.955,1087.779 
		945.199,1042.154 	"/>
	<polygon fill="#46395D" points="947.574,1026.779 945.199,1042.154 950.085,1061.117 977.199,1063.118 978.617,1045.654 	"/>
	<polygon fill="#313947" points="912.699,1077.47 927.574,1117.654 935.449,1089.904 	"/>
	<polygon fill="#4F3F46" points="978.617,1045.654 977.199,1063.118 977.949,1070.279 996.574,1070.279 990.869,1047.128 	"/>
	<polygon points="977.199,1063.118 977.949,1070.279 986.886,1106.279 958.824,1102.279 956.955,1087.779 950.085,1061.117 	"/>
	<polygon fill="#3F567B" points="990.869,1047.128 996.574,1070.279 1001.324,1070.279 1002.324,1047.128 	"/>
	<polygon fill="#202020" points="935.449,1089.904 959.839,1102.424 956.955,1087.779 	"/>
	<polygon fill="#3B4163" points="935.449,1089.904 927.574,1117.654 959.839,1150.029 959.324,1102.279 	"/>
	<polygon fill="#1E2534" points="977.841,1069.251 986.886,1106.279 1004.298,1108.029 1001.324,1070.279 	"/>
	<polygon fill="#5D5F5F" points="1002.324,1047.128 1001.324,1070.279 1017.824,1069.251 1019.324,1049.154 	"/>
	<polygon fill="#3F4664" points="1019.324,1049.154 1017.824,1069.251 1017.824,1072.529 1034.324,1073.782 1035.408,1063.118 
		1041.535,1047.128 	"/>
	<polygon fill="#9E93A4" points="1017.824,1069.251 1001.324,1070.279 1004.298,1108.029 1017.824,1073.782 	"/>
	<polygon fill="#576C8C" points="1017.824,1072.529 1004.298,1108.029 1025.241,1106.279 1034.324,1073.782 	"/>
	<polygon fill="#0F1320" points="1035.408,1063.118 1034.324,1073.782 1023.738,1106.405 1050.408,1103.446 1052.408,1088.285 
		1061.408,1063.118 	"/>
	<polygon fill="#6C7393" points="1076.24,1091.451 1050.408,1103.446 1052.408,1087.779 	"/>
	<polygon points="959.324,1102.279 959.839,1150.029 1004.298,1152.273 986.886,1106.279 	"/>
	<polygon fill="#171617" points="1005.242,1107.95 1004.298,1152.273 986.886,1106.279 	"/>
	<polygon fill="#F6EF70" points="1023.738,1106.405 1005.242,1107.95 1004.298,1152.273 1009.574,1152.273 	"/>
	<polygon fill="#0A0A0A" points="1051.241,1103.446 1023.738,1106.405 1009.574,1152.273 1049.241,1148.78 	"/>
	<polygon fill="#0A0A0A" points="1093.574,1082.257 1050.408,1103.446 1049.241,1148.78 1081.408,1118.785 	"/>
	<polygon fill="#0A0A0A" points="860.759,1026.276 751.991,1051.625 867.056,1061.117 	"/>
	<polygon fill="#0A0A0A" points="1133.074,1025.948 1134.988,1060.455 1204.657,1061.117 1240.657,1046.154 	"/>
	<polygon fill="#A3CEA3" points="866.595,1061.117 751.991,1050.529 796.657,1210.657 	"/>
	<polygon fill="#5E637D" points="867.056,1061.117 796.657,1210.657 886.263,1181.991 911.759,1105.062 	"/>
	<polygon fill="#818C7A" points="919.268,721.892 907.574,757.446 940.574,757.446 940.574,720.779 	"/>
	<rect x="1005.324" y="687.279" fill="#995748" width="18.75" height="33.5"/>
	<polygon fill="#14203D" points="992.16,720.779 992.16,753.446 968.613,732.135 967.695,720.779 	"/>
	<polygon fill="#41404F" points="919.268,721.892 915.379,733.715 903.58,722.873 	"/>
	<polygon fill="#3F3047" points="865.074,726.779 863.24,742.112 857.574,742.112 859.074,726.779 	"/>
	<rect x="940.574" y="720.779" fill="#0A0A0B" width="15.5" height="25.999"/>
	<polygon fill="#383938" points="903.58,722.873 882.574,724.279 868.908,837.292 883.574,828.445 905.574,795.778 901.24,764.778 
		907.574,757.446 915.379,733.715 	"/>
	<polygon fill="#41404F" points="1100.744,674.77 1098.574,716.779 1130.24,718.113 1130.24,709.779 1108.574,673.279 	"/>
	<polygon fill="#8B5747" points="1082.574,694.279 1080.24,715.029 1098.574,716.779 1099.736,694.279 	"/>
	<polygon fill="#383938" points="1102.574,644.271 1100.744,674.77 1108.574,673.279 1121.04,694.279 1130.24,687.279 
		1130.24,673.279 	"/>
	<polyline fill="#565D7E" points="715.324,1237.992 736.922,1228.386 755.991,1244.492 726.904,1260.709 715.324,1237.992 	"/>
	<polygon fill="#565D7E" points="772.016,1263.794 732.657,1271.994 726.904,1260.709 755.991,1244.492 	"/>
	<polygon fill="#495171" points="748.693,1238.328 723.054,1253.156 726.904,1260.709 755.991,1244.492 	"/>
	<polygon fill="#3A3A2D" points="796.657,1210.657 895.894,1152.931 886.263,1181.991 	"/>
	<polygon fill="#BCD9CC" points="850.324,1095.908 768.624,1110.158 796.657,1210.657 	"/>
	<polygon fill="#414134" points="886.263,1079.998 850.324,1095.908 867.056,1061.117 	"/>
	<polyline fill="#3A3A2D" points="909.315,1180.742 886.263,1181.991 911.759,1170.033 909.315,1180.742 	"/>
	<polygon fill="#353A56" points="1043.366,1193.742 1031.491,1249.987 1108.684,1215.218 1099.532,1176.012 	"/>
	<polygon fill="#7D95A2" points="870.074,1087.779 902.598,1132.705 906.324,1118.785 921.738,1126.312 923.714,1117.654 
		927.574,1117.654 886.263,1079.998 	"/>
	<polygon fill="#50496A" points="1095.833,1160.164 1108.684,1215.218 1211.583,1173.492 1195.32,1146.244 	"/>
</g>
</svg>
